<?xml version="1.0" standalone="no"?>
<!DOCTYPE svg PUBLIC "-//W3C//DTD SVG 20010904//EN"
 "http://www.w3.org/TR/2001/REC-SVG-20010904/DTD/svg10.dtd">
<svg version="1.0" xmlns="http://www.w3.org/2000/svg"
 width="8002.000000pt" height="6122.000000pt" viewBox="0 0 8002.000000 6122.000000"
 preserveAspectRatio="xMidYMid meet">
<metadata>
Created by potrace 1.16, written by Peter Selinger 2001-2019
</metadata>
<g transform="translate(0.000000,6122.000000) scale(0.100000,-0.100000)"
fill="#000000" stroke="none">
<path d="M4070 53010 l0 -50 -40 0 c-33 0 -40 -4 -40 -19 0 -14 10 -21 35 -25
25 -5 39 -15 47 -32 13 -28 38 -32 38 -5 0 17 11 19 123 23 68 2 132 9 144 16
44 24 54 142 12 142 -15 0 -19 -7 -19 -34 0 -59 -17 -66 -146 -66 l-114 0 0
50 c0 43 -3 50 -20 50 -17 0 -20 -7 -20 -50z"/>
<path d="M5033 52820 c-18 -10 -40 -31 -49 -46 -24 -36 -22 -118 3 -153 63
-84 213 -93 289 -17 40 40 52 102 34 176 -10 44 -15 50 -37 50 -21 0 -24 -3
-19 -22 26 -93 15 -147 -36 -178 -64 -39 -68 -34 -68 95 l0 115 -42 0 c-25 0
-57 -8 -75 -20z"/>
<path d="M4123 52785 c-17 -7 -37 -23 -43 -35 -19 -36 -16 -114 8 -154 21 -35
21 -36 2 -36 -15 0 -20 -7 -20 -25 l0 -25 170 0 170 0 0 29 0 29 -124 4 c-140
3 -160 13 -172 75 -15 80 27 103 194 103 l102 0 0 25 0 25 -127 0 c-86 -1
-138 -5 -160 -15z"/>
<path d="M5270 52470 c0 -54 -16 -60 -149 -60 l-111 0 0 45 c0 38 -3 45 -20
45 -17 0 -20 -7 -20 -45 l0 -45 -40 0 c-32 0 -40 -4 -40 -18 0 -13 12 -22 38
-30 25 -8 43 -21 50 -37 15 -32 32 -32 32 0 l0 25 110 0 c136 0 173 12 190 64
15 47 5 96 -21 96 -16 0 -19 -7 -19 -40z"/>
<path d="M4119 52399 c-48 -18 -66 -111 -39 -193 9 -27 15 -33 31 -29 17 5 20
11 15 32 -19 77 -18 106 2 124 11 10 32 19 48 20 29 2 29 2 35 -68 9 -111 38
-148 114 -143 39 2 52 8 69 31 29 40 29 115 -1 156 -22 29 -22 30 -3 36 11 4
20 15 20 26 0 18 -8 19 -132 18 -73 0 -145 -5 -159 -10z m182 -49 c44 -12 69
-47 69 -94 0 -69 -86 -84 -110 -21 -12 31 -13 125 -2 125 4 0 23 -5 43 -10z"/>
<path d="M7702 52319 c-148 -29 -262 -155 -283 -313 -4 -33 -7 -313 -6 -621 2
-557 2 -560 25 -617 40 -100 110 -170 210 -210 l57 -23 1107 -3 1108 -3 -3
-2877 -2 -2877 -37 2 -38 2 47 -94 c26 -52 50 -95 53 -95 3 0 27 43 53 95 l47
95 -40 -6 -40 -7 2 2882 3 2881 1060 0 c583 0 1088 4 1122 9 127 19 222 87
279 199 l29 57 0 635 0 635 -26 55 c-35 75 -98 136 -177 173 l-67 32 -2220 1
c-1221 1 -2239 -2 -2263 -7z m4529 -70 c62 -29 121 -85 150 -141 36 -70 40
-154 37 -723 -3 -542 -4 -551 -26 -605 -27 -70 -90 -135 -162 -169 l-55 -26
-2235 0 -2235 0 -56 26 c-71 33 -125 87 -158 158 l-26 56 0 605 c0 601 0 605
22 652 46 100 112 157 212 184 36 10 527 12 2261 11 l2215 -2 56 -26z"/>
<path d="M8900 51475 c0 -113 2 -135 15 -135 11 0 15 12 16 48 2 79 11 106 41
116 45 16 58 -5 58 -90 0 -59 3 -74 15 -74 22 0 22 152 -1 174 -18 18 -66 21
-95 6 -18 -10 -19 -7 -19 40 0 38 -4 50 -15 50 -13 0 -15 -22 -15 -135z"/>
<path d="M8080 51465 c0 -103 3 -125 15 -125 11 0 15 20 17 102 l3 103 39
-103 c21 -56 44 -102 51 -102 7 0 30 46 51 102 l39 103 3 -103 c2 -82 6 -102
17 -102 12 0 15 22 15 125 0 124 0 125 -23 125 -20 0 -28 -12 -56 -87 -19 -49
-37 -92 -41 -96 -4 -5 -24 35 -44 87 -33 85 -40 96 -62 96 l-24 0 0 -125z"/>
<path d="M8412 51510 c-36 -34 -34 -114 4 -147 25 -23 74 -30 108 -17 31 12
15 24 -29 22 -48 -1 -75 14 -75 43 0 17 8 19 60 19 59 0 60 0 60 28 0 15 -7
38 -16 50 -20 29 -81 30 -112 2z"/>
<path d="M9137 51523 c-17 -16 -4 -23 31 -17 28 4 41 2 51 -10 22 -26 6 -46
-38 -46 -23 0 -46 -7 -55 -16 -19 -18 -21 -65 -4 -82 15 -15 63 -16 89 -2 13
7 19 7 19 0 0 -5 7 -10 15 -10 12 0 15 15 15 73 0 94 -15 117 -74 117 -23 0
-46 -3 -49 -7z"/>
<path d="M9761 51504 c-31 -39 -29 -107 4 -139 33 -34 125 -34 125 0 0 9 -9
11 -34 5 -45 -10 -85 13 -86 48 0 8 20 12 66 12 l66 0 -7 33 c-11 48 -32 67
-76 67 -29 0 -42 -6 -58 -26z"/>
<path d="M10581 51504 c-49 -62 -12 -164 58 -164 43 0 60 9 76 41 39 74 2 149
-74 149 -31 0 -44 -6 -60 -26z"/>
<path d="M10992 51438 c2 -62 7 -93 16 -96 8 -2 12 8 12 35 0 75 12 114 36
125 40 19 54 -4 54 -88 0 -59 3 -74 15 -74 11 0 15 12 15 44 0 72 11 107 36
118 39 18 53 -4 56 -85 2 -45 7 -72 16 -75 17 -5 17 159 0 176 -7 7 -28 12
-48 12 -20 0 -41 -5 -48 -12 -9 -9 -15 -9 -24 0 -7 7 -28 12 -48 12 -20 0 -41
-5 -48 -12 -9 -9 -12 -9 -12 0 0 7 -7 12 -15 12 -13 0 -15 -15 -13 -92z"/>
<path d="M11341 51511 c-41 -41 -34 -135 12 -160 28 -15 99 -11 105 6 2 9 -8
12 -37 11 -43 -1 -66 11 -74 42 -5 18 0 20 59 20 l64 0 0 30 c0 17 -9 39 -20
50 -26 26 -83 27 -109 1z"/>
<path d="M4970 52215 l0 -25 170 0 170 0 0 25 0 25 -170 0 -170 0 0 -25z"/>
<path d="M5183 52100 c-26 -11 -45 -39 -69 -100 -30 -79 -70 -104 -95 -59 -11
21 -8 87 6 121 4 11 0 20 -15 28 -12 6 -24 10 -26 8 -12 -12 -21 -109 -14
-147 10 -57 37 -83 85 -83 47 0 61 14 105 105 29 60 39 73 62 75 19 2 30 -3
38 -19 12 -22 9 -108 -5 -141 -6 -15 -2 -18 18 -18 26 0 30 5 42 68 9 41 -11
125 -34 146 -22 20 -70 28 -98 16z"/>
<path d="M4122 52047 c-12 -7 -29 -23 -38 -35 -20 -29 -20 -111 0 -151 l17
-31 -86 0 -85 0 0 -30 0 -30 240 0 240 0 0 29 0 29 -124 4 c-140 3 -160 13
-172 75 -15 80 27 103 194 103 l102 0 0 25 0 25 -132 0 c-87 -1 -141 -5 -156
-13z"/>
<path d="M5069 51791 c-45 -14 -68 -31 -84 -61 -19 -37 -19 -120 0 -146 8 -10
15 -22 15 -26 0 -5 -38 -8 -85 -8 -84 0 -85 0 -85 -25 l0 -25 240 0 c228 0
240 1 240 19 0 11 -9 21 -21 24 l-21 6 20 21 c40 43 36 145 -7 184 -43 39
-146 56 -212 37z m151 -66 c34 -18 50 -43 50 -80 0 -74 -89 -113 -192 -84 -81
22 -91 138 -14 169 34 14 125 11 156 -5z"/>
<path d="M4073 51673 c-13 -50 -6 -124 15 -152 35 -47 80 -66 157 -66 87 1
127 22 156 83 17 33 20 54 15 89 -7 56 -12 63 -41 63 -22 0 -23 -2 -13 -34 17
-53 2 -103 -35 -127 -46 -29 -146 -23 -181 10 -31 29 -39 65 -26 110 11 39 12
36 -17 45 -19 6 -24 2 -30 -21z"/>
<path d="M12573 51482 c-51 -26 -93 -49 -93 -52 0 -3 43 -27 96 -53 l96 -48
-7 41 -7 40 15366 0 15366 0 0 -850 0 -850 -30 0 c-25 0 -30 -4 -30 -25 0 -21
5 -25 30 -25 l30 0 0 -2730 0 -2730 30 0 30 0 0 2450 0 2450 85 0 c84 0 85 0
85 25 0 25 -1 25 -85 25 l-85 0 0 255 0 255 40 0 c36 0 40 3 40 25 0 23 -4 25
-40 25 l-40 0 0 859 c0 768 -2 861 -16 875 -14 15 -1427 16 -15395 16 l-15380
0 7 35 c3 19 5 35 3 34 -2 0 -46 -21 -96 -47z"/>
<path d="M4066 51394 c-9 -25 12 -93 34 -107 27 -16 25 -27 -5 -27 -20 0 -25
-5 -25 -25 l0 -25 170 0 170 0 0 30 0 30 -107 0 c-90 0 -113 3 -141 20 -35 21
-53 56 -49 93 3 27 -37 37 -47 11z"/>
<path d="M5027 51391 c-46 -30 -61 -60 -61 -119 1 -63 22 -96 77 -125 47 -24
151 -26 196 -2 63 32 92 112 72 201 -11 48 -15 54 -38 54 -21 0 -24 -3 -19
-22 27 -98 11 -159 -49 -184 -19 -8 -39 -14 -45 -14 -6 0 -10 43 -10 115 l0
115 -47 0 c-30 0 -59 -7 -76 -19z"/>
<path d="M4156 51120 c-100 -30 -124 -166 -41 -238 38 -34 99 -48 167 -39 101
14 158 114 129 225 -10 35 -16 42 -37 42 -21 0 -25 -4 -20 -17 37 -97 -5 -193
-84 -193 -19 0 -20 8 -20 115 l0 115 -32 -1 c-18 0 -46 -5 -62 -9z"/>
<path d="M4972 51053 c3 -26 9 -28 125 -58 67 -16 124 -32 127 -35 3 -3 -53
-24 -124 -45 l-130 -39 0 -32 0 -31 130 -39 c71 -21 130 -41 130 -44 0 -3 -54
-18 -119 -34 -65 -15 -124 -32 -130 -36 -7 -4 -11 -18 -9 -32 l3 -24 168 45
167 46 0 32 0 32 -132 42 -132 43 119 38 c66 20 126 38 133 38 9 0 12 12 10
37 l-3 37 -155 43 c-85 23 -161 43 -168 43 -9 0 -12 -10 -10 -27z"/>
<path d="M3960 50707 l0 -44 180 -69 c98 -38 176 -72 172 -76 -4 -3 -83 -36
-177 -71 l-170 -65 -3 -41 -3 -41 225 0 226 0 0 25 0 25 -187 0 -188 1 188 72
c178 68 188 73 185 97 -3 22 -21 32 -186 95 l-182 70 185 3 185 2 0 30 0 30
-225 0 -225 0 0 -43z"/>
<path d="M5393 48344 c-46 -23 -66 -59 -66 -120 0 -95 63 -147 178 -146 75 1
118 20 145 65 28 46 34 92 21 153 -11 48 -15 54 -38 54 -22 0 -24 -3 -19 -22
28 -93 10 -159 -49 -184 -19 -8 -39 -14 -45 -14 -6 0 -10 43 -10 115 l0 115
-42 0 c-24 0 -57 -8 -75 -16z"/>
<path d="M5328 47948 c-2 -106 0 -127 14 -161 23 -59 114 -76 167 -31 28 23
32 24 47 10 17 -18 59 -21 69 -6 10 16 22 12 28 -10 3 -11 22 -27 42 -36 79
-33 125 20 125 141 0 111 -37 165 -113 165 -49 0 -87 -35 -88 -82 -1 -63 -10
-123 -20 -133 -19 -19 -44 11 -51 64 -13 84 -43 115 -110 113 -16 0 -37 -3
-47 -7 -16 -5 -20 0 -23 22 -2 17 -10 29 -20 31 -16 3 -18 -6 -20 -80z m422
-3 c31 -33 40 -123 16 -160 -19 -29 -56 -33 -80 -10 -20 21 -30 76 -22 127 12
72 44 88 86 43z m-260 -35 c24 -24 26 -67 4 -98 -11 -16 -25 -22 -54 -22 -56
0 -76 25 -70 85 5 53 80 75 120 35z"/>
<path d="M4430 47922 c0 -28 4 -31 78 -58 171 -61 197 -72 182 -78 -23 -8
-222 -83 -242 -91 -12 -5 -18 -18 -18 -37 0 -20 4 -28 13 -25 300 120 326 129
352 123 42 -11 85 -59 85 -95 0 -24 4 -31 20 -31 17 0 20 7 20 48 0 55 -18 85
-63 108 -17 9 -112 47 -212 85 -99 37 -188 70 -197 74 -15 6 -18 2 -18 -23z"/>
<path d="M5372 47633 c-55 -22 -58 -232 -3 -221 16 4 17 9 6 88 -8 56 7 78 58
87 l37 6 0 -54 c0 -112 37 -169 109 -169 49 0 78 23 91 71 13 48 6 89 -22 124
l-20 26 21 6 c12 3 21 13 21 24 0 18 -9 19 -142 18 -79 0 -149 -3 -156 -6z
m203 -57 c37 -16 55 -42 55 -81 0 -41 -17 -65 -48 -65 -51 0 -72 33 -72 109 0
57 7 61 65 37z"/>
<path d="M4479 47569 c-48 -18 -66 -111 -39 -193 9 -27 15 -33 31 -29 17 5 20
11 15 32 -19 77 -18 106 2 124 11 10 32 19 48 20 28 2 29 0 32 -43 4 -79 12
-109 38 -140 21 -25 33 -30 68 -30 54 0 83 21 96 71 13 48 6 89 -21 123 -19
24 -19 25 1 31 11 3 20 15 20 26 0 18 -8 19 -132 18 -73 0 -145 -5 -159 -10z
m182 -49 c44 -12 69 -47 69 -94 0 -69 -86 -84 -110 -21 -12 31 -13 125 -2 125
4 0 23 -5 43 -10z"/>
<path d="M5427 47297 c-21 -6 -49 -22 -62 -35 -48 -46 -53 -134 -12 -180 l21
-23 -22 -6 c-13 -3 -22 -13 -22 -24 0 -18 12 -19 245 -19 l245 0 0 25 c0 25
-1 25 -91 25 l-91 0 18 28 c23 35 24 120 2 154 -34 52 -153 81 -231 55z m146
-62 c41 -17 57 -40 57 -85 0 -63 -69 -98 -168 -87 -71 8 -107 66 -81 128 22
55 116 76 192 44z"/>
<path d="M4390 47233 c-53 -27 -70 -71 -70 -180 l0 -93 225 0 225 0 0 25 c0
24 -2 24 -87 27 l-88 3 -6 70 c-3 39 -10 79 -16 90 -36 65 -119 91 -183 58z
m120 -71 c20 -20 30 -42 35 -80 4 -28 4 -56 0 -62 -3 -5 -43 -10 -91 -10 -87
0 -86 0 -86 45 0 72 4 87 28 110 36 34 78 32 114 -3z"/>
<path d="M18860 46960 c0 -9 31 -94 82 -223 8 -22 16 -27 35 -25 22 3 31 19
73 128 46 119 48 125 28 128 -26 5 -29 1 -63 -88 -15 -41 -31 -79 -35 -83 -4
-4 -22 33 -40 83 -29 77 -37 90 -57 90 -13 0 -23 -5 -23 -10z"/>
<path d="M19370 46840 l0 -130 25 0 c23 0 24 3 27 73 3 67 5 72 26 75 40 6 52
-14 52 -84 0 -57 2 -64 20 -64 18 0 20 7 20 78 0 97 -16 118 -80 108 l-40 -6
0 40 c0 36 -2 40 -25 40 l-25 0 0 -130z"/>
<path d="M19146 46869 c-67 -79 17 -196 106 -148 15 8 27 8 44 -2 13 -7 26
-10 28 -8 1 2 1 45 -2 95 l-4 92 -74 0 c-69 1 -74 0 -98 -29z"/>
<path d="M19570 46893 c0 -5 16 -46 35 -93 29 -71 38 -85 57 -85 18 0 28 15
59 85 21 47 38 88 38 93 1 4 -10 7 -23 7 -19 0 -27 -9 -43 -51 -10 -28 -23
-50 -28 -49 -6 1 -19 24 -30 51 -16 38 -25 49 -42 49 -13 0 -23 -3 -23 -7z"/>
<path d="M19897 46882 c-10 -10 -17 -30 -17 -44 0 -27 27 -44 80 -50 17 -2 25
-9 25 -23 0 -25 -37 -32 -55 -10 -13 16 -60 21 -60 6 0 -18 53 -51 82 -51 53
0 88 27 88 67 0 25 -19 38 -73 48 -27 5 -37 12 -37 26 0 13 7 19 24 19 14 0
28 -4 31 -10 8 -13 45 -13 45 -1 0 40 -102 57 -133 23z"/>
<path d="M20237 46888 c-29 -16 -46 -65 -36 -107 12 -56 66 -84 122 -63 21 8
35 8 53 0 13 -6 26 -9 28 -7 1 2 1 45 -2 95 l-4 92 -72 0 c-39 1 -79 -4 -89
-10z"/>
<path d="M4531 46860 c-96 -23 -134 -117 -84 -213 32 -62 172 -88 253 -47 64
33 91 111 70 200 -10 44 -15 50 -37 50 -22 0 -24 -3 -19 -22 14 -48 18 -88 12
-113 -10 -37 -53 -75 -87 -75 l-29 0 0 115 c0 129 3 124 -79 105z"/>
<path d="M5328 46698 c-2 -110 1 -138 17 -169 28 -53 123 -64 171 -18 21 20
24 20 39 5 18 -18 60 -22 70 -6 9 14 25 12 25 -3 0 -39 75 -65 119 -43 36 19
51 61 51 143 0 109 -37 163 -113 163 -62 0 -84 -30 -93 -130 -4 -55 -11 -83
-20 -87 -24 -9 -41 15 -47 67 -7 56 -29 96 -60 106 -26 8 -69 8 -96 -1 -16 -5
-20 0 -23 22 -2 17 -10 29 -20 31 -16 3 -18 -6 -20 -80z m422 -3 c31 -33 40
-123 16 -160 -19 -29 -56 -33 -80 -10 -20 21 -30 76 -22 127 12 72 44 88 86
43z m-260 -35 c24 -24 26 -67 4 -98 -11 -16 -25 -22 -54 -22 -56 0 -76 25 -70
85 5 53 80 75 120 35z"/>
<path d="M18904 46473 c-15 -49 -33 -107 -40 -130 l-13 -43 27 0 c25 0 29 6
51 80 13 44 27 80 31 80 4 0 20 -35 36 -77 19 -52 35 -79 47 -81 18 -4 22 5
61 111 20 54 31 59 41 20 29 -121 35 -133 67 -133 20 0 29 4 25 13 -2 6 -21
65 -41 130 -33 106 -39 117 -60 117 -20 0 -29 -12 -57 -82 l-33 -81 -12 29
c-7 16 -23 53 -35 82 -17 42 -26 52 -45 52 -20 0 -26 -10 -50 -87z"/>
<path d="M19500 46432 l0 -129 65 -1 c55 0 70 3 94 24 35 29 44 68 26 111 -18
42 -48 57 -101 49 l-44 -6 0 40 c0 33 -3 40 -20 40 -19 0 -20 -7 -20 -128z"/>
<path d="M20160 46430 l0 -130 25 0 c23 0 25 4 25 45 l0 45 58 0 c50 0 62 4
82 25 34 37 33 90 -4 121 -24 21 -37 24 -107 24 l-79 0 0 -130z"/>
<path d="M4290 46465 l0 -25 240 0 240 0 0 25 0 25 -240 0 -240 0 0 -25z"/>
<path d="M19297 46479 c-26 -15 -46 -68 -40 -102 7 -38 57 -77 97 -77 39 0 83
31 97 68 12 32 -5 87 -34 107 -25 17 -93 19 -120 4z"/>
<path d="M19949 46461 c-67 -67 -7 -173 89 -157 34 5 72 31 72 48 0 12 -37 10
-60 -4 -13 -9 -27 -9 -46 -3 -48 17 -31 30 44 33 79 3 84 9 57 62 -31 59 -107
69 -156 21z"/>
<path d="M20436 46469 c-80 -63 -6 -195 90 -160 24 9 39 9 53 2 29 -16 41 -13
41 9 0 11 -4 20 -10 20 -6 0 -10 31 -10 74 l0 74 -69 1 c-55 0 -74 -4 -95 -20z"/>
<path d="M20670 46398 c41 -100 40 -121 -5 -132 -18 -5 -25 -12 -23 -24 6 -25
48 -17 79 16 24 25 34 47 90 185 l19 47 -24 0 c-18 0 -28 -11 -48 -57 l-25
-58 -27 58 c-21 46 -30 57 -50 57 l-24 0 38 -92z"/>
<path d="M20867 46472 c-20 -22 -22 -55 -4 -71 8 -6 29 -14 48 -17 46 -9 63
-23 48 -40 -15 -18 -38 -18 -60 2 -9 8 -27 14 -38 12 -20 -3 -21 -4 -6 -25 22
-31 78 -40 121 -19 27 13 34 21 34 45 0 34 -9 42 -65 56 -46 12 -63 45 -23 45
13 0 29 -5 35 -11 6 -6 21 -9 34 -7 l24 3 -22 23 c-30 29 -102 31 -126 4z"/>
<path d="M21060 46470 c-36 -36 -18 -77 39 -86 50 -8 65 -18 58 -38 -8 -20
-41 -21 -61 -1 -16 16 -56 21 -56 6 0 -5 7 -16 15 -25 52 -52 167 -15 151 48
-5 19 -16 28 -49 37 -23 6 -48 13 -54 15 -7 2 -13 8 -13 14 0 17 31 24 51 12
22 -14 59 -16 59 -4 0 41 -105 57 -140 22z"/>
<path d="M21273 46475 c-12 -8 -27 -30 -33 -49 -23 -70 38 -139 107 -122 37 9
53 9 81 1 18 -6 22 -4 22 13 0 12 -4 24 -10 27 -5 3 -10 37 -10 74 l0 68 -68
1 c-46 1 -75 -3 -89 -13z"/>
<path d="M5365 46368 c-47 -41 -53 -141 -10 -188 15 -17 15 -19 -4 -25 -12 -3
-21 -15 -21 -26 0 -18 9 -19 170 -19 l170 0 0 25 0 25 -110 0 c-121 0 -154 10
-176 51 -19 38 -18 72 5 100 18 23 27 24 150 27 l131 4 0 24 0 24 -139 0
c-131 0 -142 -1 -166 -22z"/>
<path d="M4430 46305 l0 -25 170 0 170 0 0 25 0 25 -170 0 -170 0 0 -25z"/>
<path d="M4529 46181 c-46 -15 -69 -31 -84 -61 -19 -37 -19 -120 0 -146 8 -10
15 -22 15 -26 0 -5 -38 -8 -85 -8 -84 0 -85 0 -85 -25 l0 -25 240 0 c229 0
240 1 240 19 0 10 -7 22 -16 25 -15 6 -15 8 0 31 43 66 23 161 -42 198 -36 21
-141 32 -183 18z m151 -66 c34 -18 50 -43 50 -80 0 -74 -89 -113 -192 -84 -81
22 -91 138 -14 169 34 14 125 11 156 -5z"/>
<path d="M5330 45975 l0 -25 170 0 170 0 0 25 0 25 -170 0 -170 0 0 -25z"/>
<path d="M5190 45815 c0 -25 1 -25 90 -25 l91 0 -23 -30 c-27 -37 -29 -117 -3
-156 27 -41 97 -67 169 -62 71 5 111 22 140 61 30 40 29 115 -2 156 -22 30
-22 31 -2 31 15 0 20 7 20 25 l0 25 -240 0 -240 0 0 -25z m365 -35 c48 -11 74
-43 75 -91 0 -55 -35 -82 -114 -87 -120 -8 -185 65 -125 142 31 40 91 53 164
36z"/>
<path d="M4515 45786 c-86 -38 -115 -137 -68 -229 31 -62 165 -87 248 -47 109
53 111 216 3 269 -51 24 -136 28 -183 7z m165 -61 c54 -28 67 -94 27 -140 -46
-54 -174 -53 -216 2 -35 44 -23 111 26 137 36 20 126 20 163 1z"/>
<path d="M18885 45555 l-25 -24 0 -1909 c0 -1865 0 -1910 19 -1933 l19 -24
2032 0 2032 0 24 28 24 28 0 1900 0 1901 -29 29 -29 29 -2022 0 -2021 0 -24
-25z m1175 -460 c0 -8 8 -15 18 -15 28 0 42 -21 42 -62 0 -48 -27 -54 -32 -6
-4 46 -28 49 -28 4 l0 -36 -68 0 c-74 0 -92 10 -92 50 0 37 18 50 66 50 l43 0
4 -42 c3 -37 4 -35 5 15 2 50 5 57 22 57 11 0 20 -7 20 -15z m1450 0 c0 -8 8
-15 18 -15 28 0 42 -21 42 -62 0 -48 -27 -54 -32 -6 -4 46 -28 49 -28 4 l0
-36 -68 0 c-74 0 -92 10 -92 50 0 37 18 50 66 50 l43 0 4 -42 c3 -37 4 -35 5
15 2 50 5 57 22 57 11 0 20 -7 20 -15z m400 -5 c0 -14 27 -12 33 3 3 10 9 10
26 0 11 -7 27 -13 36 -13 8 0 20 -12 28 -26 l13 -25 12 25 c6 14 18 26 27 26
19 0 19 2 -6 -56 -25 -56 -46 -84 -66 -84 -18 0 -17 20 3 34 14 11 14 15 -2
49 -9 20 -21 34 -26 31 -12 -8 -10 -48 4 -62 9 -9 8 -12 -8 -12 -27 0 -44 19
-44 47 0 14 -6 23 -15 23 -17 0 -21 -35 -5 -45 18 -11 10 -26 -12 -23 -18 2
-24 12 -30 43 -4 22 -4 48 -2 58 6 18 34 24 34 7z m-1660 -468 c0 -10 -5 -23
-12 -30 -9 -9 -8 -16 5 -30 51 -56 -30 -131 -91 -85 -34 26 -41 53 -13 53 12
0 21 -4 21 -9 0 -13 27 -21 45 -15 24 9 18 33 -10 40 -27 7 -32 23 -13 42 9 9
5 12 -20 12 -25 0 -32 4 -32 20 0 18 7 20 60 20 51 0 60 -3 60 -18z m160 -2
c0 -17 -7 -20 -40 -20 -22 0 -40 -4 -40 -10 0 -5 12 -10 27 -10 53 0 80 -53
49 -95 -10 -14 -26 -20 -56 -20 -30 0 -46 6 -56 20 -21 29 -17 38 14 31 50
-13 67 -12 67 4 0 11 -10 14 -42 12 -39 -2 -43 0 -43 22 0 13 3 38 6 55 6 30
8 31 60 31 47 0 54 -2 54 -20z m145 7 c13 -10 16 -22 13 -42 -4 -18 -1 -34 8
-42 20 -20 18 -30 -12 -60 -21 -21 -32 -24 -61 -20 -19 3 -41 11 -49 18 -16
13 -19 55 -4 64 5 3 7 20 3 37 -5 23 -2 34 12 45 24 17 66 17 90 0z m222 -3
c4 -10 -1 -22 -11 -30 -17 -12 -16 -14 3 -33 28 -28 26 -46 -5 -78 -20 -20
-31 -24 -56 -19 -39 8 -58 23 -58 47 0 24 18 24 42 2 14 -13 23 -15 35 -7 27
17 26 33 -1 40 -28 7 -33 23 -14 42 9 9 4 12 -25 12 -24 0 -37 5 -37 13 0 23
11 27 67 27 41 0 55 -4 60 -16z m163 -4 c0 -10 -7 -23 -15 -28 -14 -7 -13 -11
5 -27 28 -25 25 -59 -7 -85 -32 -25 -79 -21 -100 7 -29 38 -6 58 29 26 15 -13
23 -15 36 -6 23 14 20 26 -12 41 -26 13 -27 15 -10 33 17 18 16 19 -19 19 -24
0 -37 5 -37 13 0 23 11 27 72 27 51 0 58 -2 58 -20z m157 5 c3 -9 -2 -22 -12
-29 -17 -12 -17 -14 3 -34 12 -12 22 -29 22 -37 0 -25 -47 -65 -75 -65 -32 0
-82 47 -67 62 11 11 24 7 54 -14 13 -10 20 -10 29 -1 16 16 4 43 -21 43 -24 0
-25 8 -3 32 15 17 14 18 -20 18 -30 0 -37 4 -37 20 0 18 7 20 60 20 46 0 62
-4 67 -15z m143 -5 c58 -58 20 -171 -53 -156 -44 9 -58 27 -64 79 -5 39 -2 49
20 71 31 31 70 33 97 6z m157 5 c28 -20 39 -76 23 -116 -21 -50 -69 -64 -111
-30 -19 15 -23 28 -23 71 0 43 4 56 23 71 28 23 59 24 88 4z m482 -11 c28 -36
27 -41 -15 -80 l-35 -34 36 0 c29 0 36 -3 33 -17 -3 -14 -15 -19 -62 -21 -85
-4 -92 10 -32 63 33 29 47 49 43 59 -8 20 -33 21 -41 1 -6 -17 -46 -21 -46 -5
0 20 49 60 74 60 15 0 33 -11 45 -26z m-764 -589 c241 -70 421 -260 471 -498
82 -389 -181 -760 -573 -809 -279 -36 -561 117 -680 367 -88 186 -94 369 -19
554 25 62 90 164 124 194 47 42 82 -6 39 -51 -44 -46 -97 -144 -123 -227 -30
-95 -34 -225 -9 -320 44 -171 164 -320 316 -393 105 -51 150 -61 269 -62 178
0 302 50 426 174 93 93 145 185 169 301 56 267 -75 542 -317 664 -80 40 -189
70 -254 71 -35 0 -59 22 -50 45 9 24 110 19 211 -10z m-404 -574 c19 -15 24
-29 24 -64 0 -59 -24 -87 -76 -87 -46 0 -69 27 -69 81 0 75 67 114 121 70z
m534 6 c14 -11 17 -22 12 -45 -4 -17 -2 -34 3 -37 14 -9 12 -49 -2 -63 -7 -7
-33 -12 -59 -12 -38 0 -51 5 -63 22 -20 28 -20 33 -1 52 12 12 13 20 5 36 -23
43 59 80 105 47z m405 -1117 c27 -15 58 -45 78 -74 27 -41 32 -57 32 -108 0
-97 -61 -184 -147 -207 -25 -7 -265 -11 -688 -11 l-650 0 -50 24 c-60 28 -77
46 -106 111 -50 112 16 248 139 285 15 5 324 8 687 7 l660 -2 45 -25z"/>
<path d="M5394 45449 c-45 -13 -67 -52 -67 -116 0 -40 6 -62 22 -84 21 -29 21
-29 1 -29 -15 0 -20 -7 -20 -25 l0 -25 171 0 170 0 -3 28 c-3 30 6 28 -145 30
-80 2 -95 5 -118 25 -37 31 -45 94 -15 125 19 21 29 22 150 22 l130 0 0 30 0
30 -122 -1 c-68 0 -137 -5 -154 -10z"/>
<path d="M4322 45348 l3 -42 173 -67 c95 -36 174 -68 177 -71 3 -3 -76 -36
-175 -74 l-180 -69 0 -42 0 -43 225 0 225 0 0 25 0 25 -187 0 c-102 0 -184 2
-181 5 3 4 86 37 184 75 160 61 179 71 182 93 3 23 -8 28 -189 98 l-192 74
192 3 191 2 0 25 0 25 -226 0 -225 0 3 -42z"/>
<path d="M5391 45061 c-56 -15 -80 -107 -51 -195 12 -38 17 -41 39 -27 11 7
11 17 0 61 -18 70 -1 104 54 108 l37 3 0 -55 c0 -78 25 -135 66 -152 42 -17
86 -9 115 22 32 34 33 120 2 162 -21 29 -22 30 -3 35 12 3 20 14 20 26 0 20
-4 21 -127 20 -71 -1 -139 -4 -152 -8z m200 -64 c65 -50 42 -166 -29 -141 -34
12 -52 47 -52 107 0 47 0 47 33 47 17 0 39 -6 48 -13z"/>
<path d="M5620 44650 l0 -100 -200 0 -200 0 0 -25 0 -25 225 0 225 0 0 125 0
125 -25 0 -25 0 0 -100z"/>
<path d="M9492 44127 c-243 -243 -442 -447 -442 -452 0 -12 888 -902 892 -894
2 3 203 206 448 452 l445 447 -445 445 c-245 245 -447 445 -450 445 -3 0 -204
-199 -448 -443z m866 -40 l412 -412 -415 -415 -415 -415 -415 415 -415 415
412 412 c227 227 415 413 418 413 3 0 191 -186 418 -413z"/>
<path d="M13817 44122 l-447 -447 448 -448 447 -447 448 448 447 447 -448 448
-447 447 -448 -448z m861 -859 l-413 -413 -412 412 -413 413 412 412 413 413
412 -412 413 -413 -412 -412z"/>
<path d="M41149 44176 c-125 -47 -208 -132 -239 -245 -6 -25 -10 -156 -10
-336 0 -193 -4 -295 -10 -295 -6 0 -51 20 -100 45 -49 25 -92 45 -95 45 -3 0
-3 -16 1 -35 l6 -35 -7635 0 c-6953 0 -7635 -1 -7641 -16 -3 -9 -6 -1149 -6
-2535 0 -1673 -3 -2519 -10 -2519 -5 0 -10 -11 -10 -25 0 -14 5 -25 10 -25 6
0 10 -87 10 -240 l0 -239 -72 -3 c-67 -3 -73 -5 -76 -25 -3 -22 0 -23 72 -23
l76 0 0 -1610 0 -1610 25 0 25 0 1 1613 c0 886 0 1730 -1 1875 l-2 262 71 0
c69 0 71 1 71 25 0 24 -2 25 -70 25 l-70 0 0 2510 0 2510 7615 0 7616 0 -7
-35 c-3 -19 -3 -35 0 -35 4 0 47 20 96 45 49 25 94 45 99 45 7 0 11 -117 13
-313 l3 -312 33 -67 c38 -77 92 -130 171 -167 l56 -26 2234 -3 c2437 -2 2276
-6 2378 53 55 33 116 109 142 180 20 54 21 73 21 658 0 457 -3 612 -13 642
-33 105 -95 177 -192 222 l-60 28 -2245 2 c-1832 1 -2252 -1 -2281 -11z m4576
-68 c94 -50 149 -129 166 -241 6 -39 9 -281 7 -618 l-3 -554 -29 -63 c-35 -76
-96 -133 -172 -162 -54 -20 -67 -20 -2274 -20 -2207 0 -2220 0 -2274 20 -76
29 -137 86 -172 162 l-29 63 0 595 c0 548 1 599 18 647 31 87 114 165 207 194
14 4 1033 7 2265 6 l2240 -2 50 -27z"/>
<path d="M41580 43426 l0 -44 -42 5 c-61 6 -80 -11 -86 -78 -3 -45 0 -59 18
-81 24 -31 75 -38 99 -15 11 10 14 10 18 0 3 -7 9 -13 14 -13 5 0 9 60 9 135
0 113 -2 135 -15 135 -11 0 -15 -12 -15 -44z"/>
<path d="M43750 43335 c0 -113 2 -135 15 -135 12 0 15 14 15 63 0 68 18 107
50 107 36 0 50 -27 50 -101 0 -55 3 -69 15 -69 22 0 21 137 -1 168 -17 25 -81
31 -102 10 -9 -9 -12 0 -12 40 0 40 -4 52 -15 52 -13 0 -15 -22 -15 -135z"/>
<path d="M45060 43335 c0 -113 2 -135 15 -135 8 0 15 4 15 9 0 5 12 5 28 -1
41 -16 79 -3 98 34 19 38 14 101 -12 129 -20 22 -83 26 -102 7 -9 -9 -12 0
-12 40 0 40 -4 52 -15 52 -13 0 -15 -22 -15 -135z"/>
<path d="M41050 43325 c0 -104 2 -125 15 -125 12 0 15 13 15 55 0 51 2 55 24
55 19 0 31 -12 55 -55 21 -37 37 -55 51 -55 18 0 16 5 -14 56 l-34 55 24 24
c29 29 31 68 4 95 -16 16 -33 20 -80 20 l-60 0 0 -125z"/>
<path d="M41271 43364 c-30 -39 -28 -103 4 -138 22 -23 32 -27 72 -24 36 2 49
7 51 20 3 14 -1 16 -25 9 -32 -9 -51 -5 -75 17 -35 30 -22 42 47 42 62 0 65 1
65 24 0 13 -9 35 -21 50 -16 20 -29 26 -59 26 -30 0 -43 -6 -59 -26z"/>
<path d="M41921 43364 c-31 -39 -29 -107 4 -139 33 -33 125 -34 125 -1 0 7
-15 10 -43 8 -45 -4 -77 14 -77 44 0 11 15 14 66 14 l67 0 -7 32 c-9 47 -33
68 -77 68 -29 0 -42 -6 -58 -26z"/>
<path d="M42620 43363 c-18 -23 -21 -37 -17 -77 5 -59 32 -86 84 -86 50 0 83
37 83 93 0 65 -28 97 -85 97 -36 0 -48 -5 -65 -27z"/>
<path d="M42912 43298 c2 -62 7 -93 16 -96 8 -2 12 10 12 41 0 73 11 108 36
119 40 19 54 -4 54 -88 0 -59 3 -74 15 -74 11 0 15 12 15 44 0 95 24 136 70
121 18 -6 20 -16 20 -86 0 -64 3 -79 15 -79 12 0 15 16 15 83 0 94 -7 107 -60
107 -20 0 -41 -5 -48 -12 -9 -9 -15 -9 -24 0 -7 7 -28 12 -48 12 -20 0 -41 -5
-48 -12 -9 -9 -12 -9 -12 0 0 7 -7 12 -15 12 -13 0 -15 -15 -13 -92z"/>
<path d="M43251 43364 c-30 -39 -28 -103 4 -138 22 -23 32 -27 72 -24 36 2 49
7 51 20 3 14 -1 16 -25 9 -32 -9 -51 -5 -75 17 -35 30 -22 42 47 42 62 0 65 1
65 24 0 13 -9 35 -21 50 -16 20 -29 26 -59 26 -30 0 -43 -6 -59 -26z"/>
<path d="M43982 43383 c-24 -10 0 -23 32 -18 23 5 36 2 45 -9 21 -25 6 -46
-31 -46 -65 0 -101 -55 -62 -94 19 -19 75 -21 93 -3 11 10 14 10 18 0 3 -7 9
-13 14 -13 14 0 11 164 -3 178 -12 12 -81 15 -106 5z"/>
<path d="M44570 43378 c0 -7 11 -49 23 -93 18 -64 26 -80 42 -80 15 0 24 15
41 70 22 68 23 69 33 42 6 -16 16 -48 22 -73 8 -32 16 -44 30 -44 14 0 23 16
38 68 34 115 35 122 17 122 -15 0 -27 -30 -42 -109 -8 -41 -16 -32 -39 47 -25
85 -44 84 -74 -8 -12 -38 -24 -70 -25 -70 -2 0 -12 32 -21 70 -11 45 -22 70
-31 70 -8 0 -14 -6 -14 -12z"/>
<path d="M44880 43370 c-19 -19 -24 -44 -21 -100 4 -51 78 -86 135 -64 31 12
15 24 -29 22 -48 -1 -75 14 -75 43 0 17 8 19 60 19 59 0 60 0 60 28 0 15 -7
38 -16 50 -20 29 -85 31 -114 2z"/>
<path d="M45671 43364 c-30 -39 -28 -103 4 -138 22 -23 32 -27 72 -24 36 2 49
7 51 20 3 14 -1 16 -25 9 -32 -9 -51 -5 -75 17 -35 30 -22 42 47 42 62 0 65 1
65 24 0 13 -9 35 -21 50 -16 20 -29 26 -59 26 -30 0 -43 -6 -59 -26z"/>
<path d="M12176 44013 c-3 -3 -6 -20 -6 -38 0 -30 -2 -31 -35 -27 -19 2 -41
-1 -49 -7 -20 -17 -27 -65 -15 -101 12 -32 29 -39 92 -37 l37 1 0 102 c0 94
-7 124 -24 107z"/>
<path d="M11400 43900 l0 -100 34 0 c86 0 134 50 120 126 -9 48 -45 74 -105
74 l-49 0 0 -100z m110 60 c26 -26 27 -90 1 -114 -10 -9 -35 -20 -55 -23 l-36
-6 0 82 0 81 35 0 c22 0 43 -8 55 -20z"/>
<path d="M13168 43735 l4 -35 -106 0 -106 0 0 -25 0 -25 106 0 106 0 -4 -35
c-2 -19 -3 -35 -1 -35 1 0 46 21 98 47 l95 48 -92 47 c-51 26 -95 47 -98 47
-4 1 -4 -15 -2 -34z"/>
<path d="M17764 43735 l7 -35 -1301 0 -1300 0 0 -25 0 -25 1301 0 1301 0 -6
-35 c-4 -19 -5 -35 -2 -35 3 0 49 21 101 47 l95 48 -92 47 c-51 26 -97 47
-102 47 -4 1 -5 -15 -2 -34z"/>
<path d="M40695 43729 l7 -42 -6466 7 -6466 6 0 -23 0 -24 3473 -6 c1909 -4
4819 -7 6465 -7 l2993 0 -7 -36 -6 -35 96 48 c111 55 112 48 -17 114 l-79 41
7 -43z"/>
<path d="M27070 43638 c0 -65 4 -108 10 -108 6 0 10 18 10 39 l0 39 39 -5 c32
-4 41 -2 55 18 20 30 21 93 0 113 -10 11 -31 15 -65 14 l-49 -2 0 -108z"/>
<path d="M10840 43675 l0 -25 235 0 235 0 0 25 0 25 -235 0 -235 0 0 -25z"/>
<path d="M23910 43675 l0 -25 1025 0 1025 0 0 25 0 25 -1025 0 -1025 0 0 -25z"/>
<path d="M11646 43534 c-23 -22 -21 -96 2 -117 25 -22 75 -21 95 1 22 24 22
95 1 116 -8 9 -31 16 -49 16 -18 0 -41 -7 -49 -16z"/>
<path d="M9910 41495 l0 -1275 25 0 25 0 0 1275 0 1275 -25 0 -25 0 0 -1275z"/>
<path d="M14240 40210 l0 -2561 -36 7 -35 6 46 -93 c26 -52 49 -96 51 -98 1
-2 26 42 53 98 l51 101 70 0 c68 0 70 1 70 25 l0 25 -100 0 -100 0 0 -25 c0
-19 5 -25 23 -25 18 0 19 -2 7 -10 -8 -5 -23 -10 -32 -10 -17 0 -18 129 -18
2560 l0 2560 -25 0 -25 0 0 -2560z"/>
<path d="M43817 42295 c-26 -52 -47 -97 -47 -98 0 -2 16 -1 35 1 l35 4 0
-1466 0 -1466 -7164 0 c-6500 0 -7166 -1 -7180 -16 -15 -14 -16 -307 -16
-3075 l0 -3059 25 0 25 0 2 2273 3 2272 83 3 c80 3 82 3 82 27 0 25 -1 25 -85
25 l-85 0 0 750 0 750 7178 2 7177 3 3 1489 2 1488 35 -4 c30 -3 34 -1 30 14
-8 22 -84 178 -88 178 -1 0 -24 -43 -50 -95z"/>
<path d="M44123 42315 c-60 -119 -60 -122 -18 -117 l35 4 0 -1976 0 -1976 -91
0 c-88 0 -90 -1 -87 -22 3 -22 8 -23 89 -26 l86 -3 6 -7621 c4 -4192 7 -9702
7 -12245 l0 -4623 26 0 27 0 -8 14246 -7 14246 36 -4 c20 -2 36 -2 35 2 0 3
-22 48 -48 100 l-48 95 -40 -80z"/>
<path d="M9756 40173 c-3 -3 -6 -20 -6 -38 0 -30 -2 -31 -35 -27 -19 2 -41 -1
-49 -7 -20 -17 -27 -65 -15 -101 12 -32 29 -39 92 -37 l37 1 0 102 c0 94 -7
124 -24 107z"/>
<path d="M9202 40098 c-15 -15 -16 -54 -2 -63 11 -7 3 -53 -12 -72 -18 -22 -5
-56 25 -64 35 -9 93 6 101 28 15 38 -13 63 -72 63 -31 0 -23 24 9 28 35 5 49
21 49 52 0 16 6 31 13 33 6 3 -13 6 -43 6 -31 1 -61 -4 -68 -11z"/>
<path d="M10737 40092 c-10 -10 -17 -35 -17 -55 0 -90 108 -107 134 -21 7 24
-9 74 -27 86 -22 14 -74 8 -90 -10z"/>
<path d="M9917 39843 c-4 -3 -7 -363 -7 -800 l0 -793 -60 0 c-57 0 -60 -1 -60
-25 0 -24 3 -25 60 -25 l60 0 0 -222 c0 -123 0 -5815 0 -12650 0 -11286 1
-12428 16 -12442 14 -14 92 -16 716 -16 l701 0 -6 -35 -6 -34 95 47 c52 25 94
49 94 52 0 3 -42 26 -94 52 l-94 47 5 -40 6 -39 -692 0 -691 0 0 12640 c0
12633 0 12640 20 12640 14 0 20 7 20 24 0 15 -7 26 -20 29 -20 5 -20 14 -20
801 0 765 -1 796 -18 796 -10 0 -22 -3 -25 -7z"/>
<path d="M14200 37449 c-203 -25 -375 -145 -459 -322 -50 -105 -65 -171 -65
-282 1 -162 61 -303 178 -420 214 -212 537 -232 775 -47 77 60 128 124 172
217 62 133 75 268 39 409 -74 290 -349 481 -640 445z m209 -66 c174 -48 315
-184 377 -363 28 -83 26 -253 -4 -342 -57 -166 -186 -294 -350 -349 -51 -17
-90 -23 -162 -23 -160 1 -276 49 -388 162 -105 107 -155 233 -155 387 1 363
338 623 682 528z"/>
<path d="M36970 36953 c1 -126 4 -173 11 -160 29 50 -133 47 2721 47 2634 0
2653 0 2686 -20 18 -11 35 -20 37 -20 3 0 5 74 5 165 l0 165 -2730 0 -2730 0
0 -177z m5345 27 l0 -45 -130 0 -130 0 -3 33 c-6 63 -5 63 135 60 l128 -3 0
-45z"/>
<path d="M31290 32220 l0 -4850 2725 0 2725 0 0 4850 0 4850 -2725 0 -2725 0
0 -4850z m5400 0 l0 -4800 -2675 0 -2675 0 0 4800 0 4800 2675 0 2675 0 0
-4800z"/>
<path d="M33050 32255 c0 -77 4 -125 10 -125 10 0 13 39 10 145 -1 33 2 56 7
52 4 -5 24 -50 43 -100 22 -57 41 -92 50 -92 9 0 28 35 50 92 19 50 38 95 43
99 4 4 7 -38 7 -94 0 -84 3 -102 15 -102 13 0 15 21 15 126 l0 125 -27 -3
c-23 -3 -30 -13 -61 -95 -20 -51 -38 -93 -41 -93 -3 0 -22 43 -41 95 -30 81
-38 95 -57 95 -23 0 -23 -2 -23 -125z"/>
<path d="M33377 32313 c-16 -16 -4 -23 34 -21 31 2 44 -2 53 -15 14 -22 -5
-37 -47 -37 -46 0 -67 -17 -67 -53 0 -18 5 -38 12 -45 15 -15 63 -16 89 -2 13
7 19 7 19 0 0 -5 7 -10 15 -10 12 0 15 15 15 73 0 94 -15 117 -74 117 -23 0
-46 -3 -49 -7z"/>
<path d="M34441 32294 c-38 -48 -18 -147 33 -160 38 -9 91 0 94 16 2 12 -6 15
-38 12 -29 -3 -47 1 -60 13 -37 34 -25 45 45 45 62 0 65 1 65 24 0 13 -9 35
-21 50 -16 20 -29 26 -59 26 -30 0 -43 -6 -59 -26z"/>
<path d="M34641 32294 c-31 -39 -29 -107 4 -139 34 -35 125 -34 125 2 0 8 -5
11 -11 8 -22 -14 -83 -7 -96 11 -26 36 -17 44 53 44 l66 0 -7 33 c-11 48 -32
67 -76 67 -29 0 -42 -6 -58 -26z"/>
<path d="M39360 36515 l0 -95 64 0 c45 0 69 5 80 16 19 18 21 45 5 61 -7 7 -8
20 -3 34 19 56 -8 79 -88 79 l-58 0 0 -95z"/>
<path d="M39830 36533 c-11 -14 -20 -36 -20 -48 0 -33 31 -67 60 -66 108 3
102 2 96 24 -3 12 -6 42 -6 67 l0 46 -55 1 c-48 1 -57 -2 -75 -24z"/>
<path d="M4430 36492 c0 -28 4 -31 78 -58 171 -61 197 -72 182 -78 -23 -8
-222 -83 -242 -91 -12 -5 -18 -18 -18 -37 0 -20 4 -28 13 -25 366 146 352 144
409 87 21 -22 29 -38 26 -57 -2 -23 1 -29 20 -31 20 -3 22 1 22 45 0 56 -17
86 -63 109 -17 9 -112 47 -212 85 -99 37 -188 70 -197 74 -15 6 -18 2 -18 -23z"/>
<path d="M14240 36090 c0 -171 14 -152 -107 -152 l-63 0 0 -74 c0 -58 3 -74
15 -74 10 0 15 16 17 63 3 62 3 62 33 62 30 0 30 0 33 -62 3 -72 22 -86 22
-17 0 51 14 84 35 84 13 0 15 -1101 15 -8986 l0 -8986 -35 4 c-19 2 -35 3 -35
1 0 -1 21 -46 47 -98 l48 -95 47 92 c26 51 47 95 47 98 1 4 -15 4 -34 2 l-35
-4 0 9146 0 9146 -25 0 -25 0 0 -150z"/>
<path d="M4477 36143 c-42 -11 -65 -126 -37 -193 13 -31 18 -34 43 -24 12 4
12 11 1 42 -7 20 -13 49 -14 65 0 36 34 69 68 65 26 -3 27 -6 33 -73 8 -104
39 -145 109 -145 48 0 77 23 90 71 13 48 6 89 -22 124 l-20 26 21 6 c12 3 21
13 21 24 0 18 -9 19 -137 18 -76 -1 -146 -3 -156 -6z m198 -57 c37 -16 55 -42
55 -81 0 -41 -17 -65 -48 -65 -51 0 -72 33 -72 109 0 57 7 61 65 37z"/>
<path d="M13357 35983 c-2 -5 -4 -48 -3 -97 1 -62 5 -91 14 -94 8 -2 12 9 12
37 0 38 2 41 28 41 44 0 72 26 72 65 0 24 -6 38 -19 45 -23 12 -98 14 -104 3z"/>
<path d="M14920 35920 c-6 -12 -8 -30 -3 -43 11 -33 9 -70 -4 -85 -33 -35 9
-76 67 -66 45 8 60 21 60 50 0 26 -31 44 -76 44 -38 0 -28 18 16 30 37 10 40
14 40 45 0 18 6 36 13 38 6 3 -14 6 -45 6 -48 1 -59 -2 -68 -19z"/>
<path d="M4405 35813 c-59 -15 -85 -73 -85 -193 l0 -90 225 0 225 0 0 25 c0
24 -2 24 -87 27 l-88 3 -6 71 c-3 43 -12 82 -23 98 -34 53 -95 75 -161 59z
m105 -81 c20 -20 30 -42 35 -80 4 -28 4 -56 0 -62 -3 -5 -42 -10 -90 -10 -95
0 -96 0 -84 94 10 84 83 114 139 58z"/>
<path d="M5271 35514 c-37 -26 -51 -74 -51 -174 l0 -90 225 0 225 0 0 25 c0
25 -1 25 -90 25 l-90 0 0 60 c0 116 -44 170 -139 170 -36 0 -65 -6 -80 -16z
m145 -68 c23 -26 41 -123 26 -138 -5 -5 -46 -8 -93 -6 l-83 3 3 55 c1 30 9 65
17 78 30 47 92 50 130 8z"/>
<path d="M4531 35430 c-96 -23 -134 -117 -84 -213 32 -62 172 -88 253 -47 50
26 74 70 74 140 1 82 -9 110 -40 110 -23 0 -25 -3 -20 -22 14 -48 18 -88 12
-113 -10 -37 -53 -75 -87 -75 l-29 0 0 115 c0 129 3 124 -79 105z"/>
<path d="M5271 35134 c-37 -26 -51 -74 -51 -174 l0 -90 225 0 225 0 0 25 c0
25 -1 25 -90 25 l-90 0 0 60 c0 116 -44 170 -139 170 -36 0 -65 -6 -80 -16z
m145 -69 c22 -24 42 -115 29 -135 -10 -15 -172 -13 -178 3 -8 22 4 101 19 125
30 47 92 50 130 7z"/>
<path d="M4290 35035 l0 -25 240 0 240 0 0 25 0 25 -240 0 -240 0 0 -25z"/>
<path d="M4430 34875 l0 -25 170 0 170 0 0 25 0 25 -170 0 -170 0 0 -25z"/>
<path d="M5445 34721 c-214 -84 -220 -87 -220 -115 0 -27 6 -30 213 -112 118
-46 218 -84 224 -84 5 0 8 12 6 26 -3 23 -13 31 -70 53 l-68 26 0 91 0 90 66
24 c67 23 78 34 72 68 -3 18 -23 12 -223 -67z"/>
<path d="M4529 34751 c-46 -15 -69 -31 -85 -64 -20 -38 -20 -112 1 -144 8 -12
15 -25 15 -28 0 -3 -38 -5 -85 -5 -84 0 -85 0 -85 -25 l0 -25 240 0 c228 0
240 1 240 19 0 11 -9 21 -21 24 l-21 6 20 21 c40 43 36 145 -7 184 -43 39
-146 56 -212 37z m177 -84 c45 -53 22 -128 -45 -147 -46 -13 -76 -13 -123 1
-60 16 -87 88 -52 137 23 34 51 42 128 39 61 -2 71 -6 92 -30z"/>
<path d="M25260 34382 l0 -38 -39 4 c-31 3 -42 0 -55 -19 -35 -51 -9 -129 43
-129 15 0 32 5 39 12 9 9 12 9 12 0 0 -7 5 -12 10 -12 6 0 10 43 10 110 0 67
-4 110 -10 110 -5 0 -10 -17 -10 -38z"/>
<path d="M4515 34356 c-116 -51 -123 -226 -12 -277 89 -40 212 -14 252 53 24
41 25 121 2 164 -33 63 -163 95 -242 60z m165 -61 c54 -28 67 -94 27 -140 -46
-54 -174 -53 -216 2 -35 44 -23 111 26 137 36 20 126 20 163 1z"/>
<path d="M24712 34338 c-15 -15 -16 -54 -2 -63 11 -7 3 -54 -11 -69 -5 -6 -9
-20 -9 -33 0 -32 40 -47 90 -33 66 18 59 75 -11 86 -43 7 -48 27 -8 32 35 5
49 21 49 52 0 16 6 31 13 33 6 3 -13 6 -43 6 -31 1 -61 -4 -68 -11z"/>
<path d="M26246 34334 c-23 -22 -21 -96 2 -117 25 -22 75 -21 95 1 22 24 22
95 1 116 -8 9 -31 16 -49 16 -18 0 -41 -7 -49 -16z"/>
<path d="M25420 33606 c0 -352 3 -485 11 -488 7 -2 -189 -204 -434 -449 l-445
-446 449 -449 449 -449 447 448 448 447 -450 450 c-247 247 -444 450 -437 450
9 0 12 105 12 485 l0 485 -25 0 -25 0 0 -484z m442 -1798 l-412 -413 -415 415
-415 415 412 412 413 413 415 -415 415 -415 -413 -412z"/>
<path d="M4322 33918 l3 -42 173 -67 c95 -37 175 -69 178 -71 2 -3 -77 -36
-176 -74 l-180 -69 0 -42 0 -43 225 0 225 0 0 25 0 25 -187 0 c-102 0 -184 3
-180 6 3 3 86 37 184 74 159 61 178 71 181 92 3 23 -8 29 -175 93 -98 38 -182
72 -187 77 -6 4 74 8 177 8 l187 0 0 25 0 25 -226 0 -225 0 3 -42z"/>
<path d="M29060 32665 l-445 -445 448 -448 447 -447 447 447 448 448 -445 445
c-245 245 -447 445 -450 445 -3 0 -205 -200 -450 -445z m865 -35 l410 -410
-413 -413 -412 -412 -412 412 -413 413 410 410 c225 225 412 410 415 410 3 0
190 -185 415 -410z"/>
<path d="M39653 32668 c-134 -15 -253 -103 -318 -236 -65 -130 -45 -307 46
-418 46 -55 104 -104 116 -100 7 3 12 0 10 -6 -4 -20 122 -57 198 -57 237 -2
414 177 415 418 0 73 -14 127 -48 191 -27 50 -112 141 -124 134 -4 -3 -8 -1
-8 5 0 19 -84 55 -155 66 -40 6 -97 7 -132 3z m145 -40 c58 -14 146 -68 190
-116 19 -21 47 -64 63 -97 26 -53 29 -71 29 -156 0 -87 -3 -102 -30 -156 -17
-33 -45 -76 -63 -94 -36 -37 -91 -84 -94 -82 -2 1 -20 -5 -40 -14 -50 -22
-183 -29 -250 -13 -29 7 -53 17 -53 21 0 4 -9 11 -21 14 -48 16 -120 91 -155
163 -36 74 -45 204 -20 282 38 116 141 210 275 251 39 11 117 10 169 -3z"/>
<path d="M39874 32375 c-16 -20 -34 -42 -40 -48 -6 -7 -28 -37 -49 -67 -70
-100 -87 -120 -105 -120 -10 0 -43 23 -73 50 -57 52 -71 59 -80 37 -6 -17 141
-156 165 -157 3 0 30 33 59 73 29 39 55 74 59 77 6 5 97 131 113 156 4 7 1 17
-7 23 -11 9 -20 4 -42 -24z"/>
<path d="M27466 32563 c-3 -3 -6 -20 -6 -38 0 -30 -2 -31 -35 -27 -19 2 -41
-1 -49 -7 -20 -17 -27 -65 -15 -101 12 -32 29 -39 92 -37 l37 1 0 102 c0 94
-7 124 -24 107z"/>
<path d="M26690 32450 l0 -100 34 0 c86 0 134 50 120 126 -9 48 -45 74 -105
74 l-49 0 0 -100z m110 60 c25 -25 26 -80 3 -109 -10 -12 -35 -24 -55 -28
l-38 -6 0 82 0 81 35 0 c22 0 43 -8 55 -20z"/>
<path d="M28410 32285 l8 -35 -84 0 c-83 0 -84 0 -84 -25 0 -25 1 -25 78 -25
43 0 81 -2 84 -6 3 -3 2 -20 -2 -39 l-8 -34 101 51 102 50 -95 49 c-52 26 -98
48 -101 48 -4 1 -3 -15 1 -34z"/>
<path d="M31086 32285 l6 -35 -341 0 -341 0 0 -25 0 -25 341 0 342 0 -7 -40
-6 -40 102 51 103 52 -99 48 c-54 27 -101 49 -103 49 -2 0 -1 -16 3 -35z"/>
<path d="M26873 32092 c-18 -12 -34 -62 -27 -86 25 -83 134 -69 134 17 0 47
-24 77 -63 77 -18 0 -37 -4 -44 -8z"/>
<path d="M25397 31214 l-48 -96 35 6 36 7 0 -496 0 -495 -1355 0 -1355 0 0
-5910 0 -5910 2730 0 2730 0 0 5910 0 5910 -1350 0 -1350 0 0 496 0 496 35 -6
c19 -4 35 -4 35 -1 0 7 -89 185 -93 185 -1 0 -24 -43 -50 -96z m-1741 -5149
c140 -69 217 -229 180 -376 -39 -151 -154 -248 -306 -257 -108 -6 -176 21
-256 102 -78 80 -98 134 -92 250 6 99 34 162 103 225 74 68 144 92 249 86 47
-3 86 -12 122 -30z m-318 -1056 c50 -31 56 -106 13 -150 -27 -26 -36 -29 -95
-29 l-66 0 0 93 c0 52 3 97 8 101 11 12 115 0 140 -15z m182 -44 c56 -29 53
-107 -6 -131 -43 -18 -80 -4 -104 39 -13 24 -13 30 0 54 14 25 52 52 73 53 4
0 21 -7 37 -15z m403 -12 c24 -23 23 -85 -3 -108 -30 -27 -88 -25 -111 4 -63
78 39 171 114 104z m608 17 c28 0 29 -1 29 -49 0 -28 5 -53 10 -56 6 -3 10
-12 10 -20 0 -10 -13 -14 -42 -15 -24 0 -54 -1 -68 -1 -47 -2 -75 64 -49 112
12 23 47 40 67 33 8 -2 27 -4 43 -4z m612 -22 c41 -48 7 -122 -57 -122 -46 0
-79 31 -79 73 0 72 89 104 136 49z m318 3 c46 -46 39 -61 -26 -61 -31 0 -55
-4 -55 -10 0 -18 30 -23 56 -11 14 6 29 9 34 6 16 -10 -1 -33 -32 -44 -62 -22
-123 40 -96 96 13 27 50 53 76 53 8 0 27 -13 43 -29z m229 14 c17 -9 30 -19
30 -23 0 -4 3 -17 6 -29 6 -22 4 -23 -51 -23 -41 0 -55 -3 -52 -12 4 -14 37
-15 75 -3 16 5 22 3 22 -8 0 -43 -90 -56 -121 -18 -33 40 -20 103 24 121 31
12 34 12 67 -5z m-1455 -40 l11 -40 17 43 c9 23 23 42 31 42 8 0 21 -19 29
-42 l14 -43 12 43 c9 31 17 42 31 42 25 0 25 -2 -1 -78 -26 -77 -50 -84 -72
-19 l-14 42 -18 -42 c-25 -62 -47 -57 -69 15 -10 31 -21 63 -24 70 -3 10 2 13
18 10 17 -2 26 -13 35 -43z m-905 -234 c0 -28 2 -29 33 -24 46 7 62 -15 62
-86 0 -49 -2 -56 -20 -56 -17 0 -20 8 -23 53 -3 48 -5 53 -25 50 -19 -3 -22
-10 -25 -55 -3 -45 -6 -53 -23 -53 -18 0 -19 8 -19 100 0 93 1 100 20 100 15
0 20 -7 20 -29z m245 -46 c14 -13 25 -33 25 -45 0 -18 -6 -20 -57 -20 -51 -1
-56 -2 -40 -14 14 -11 24 -11 47 -3 37 14 49 3 25 -23 -42 -46 -125 -12 -125
52 0 69 77 102 125 53z m241 0 c30 -30 31 -64 2 -100 -18 -23 -26 -26 -60 -22
-37 5 -38 4 -38 -24 0 -22 -5 -29 -20 -29 -19 0 -20 7 -20 99 l0 98 56 1 c47
0 61 -4 80 -23z m197 -49 c3 -39 3 -73 0 -76 -2 -2 -12 1 -23 8 -12 7 -21 8
-25 2 -10 -17 -61 -11 -86 9 -17 13 -23 29 -23 56 0 52 28 73 98 73 l53 -1 6
-71z m295 62 c9 -8 16 -8 24 0 17 17 54 15 72 -4 11 -10 16 -34 16 -75 0 -52
-2 -59 -19 -59 -17 0 -20 8 -23 53 -3 44 -6 52 -23 52 -17 0 -20 -8 -23 -52
-3 -44 -6 -53 -22 -53 -16 0 -19 9 -22 53 -3 45 -6 52 -25 55 -20 3 -22 -2
-25 -50 -3 -45 -6 -53 -23 -53 -17 0 -20 8 -23 59 -2 32 -1 64 2 71 5 15 96
17 114 3z m267 -13 c14 -13 25 -33 25 -45 0 -18 -6 -20 -57 -20 -51 -1 -56 -2
-40 -14 14 -11 24 -11 47 -3 38 15 51 0 21 -24 -50 -41 -121 -10 -121 53 0 69
77 102 125 53z m-939 -876 c28 -55 -2 -129 -53 -129 -35 0 -63 34 -63 78 0 53
23 82 65 82 29 0 37 -5 51 -31z m135 14 c21 -24 18 -97 -5 -122 -19 -21 -51
-27 -72 -13 -34 22 -44 93 -18 130 19 27 75 30 95 5z m649 2 c7 -8 10 -24 7
-36 -3 -12 0 -32 6 -46 10 -22 8 -28 -12 -44 -15 -12 -39 -19 -67 -19 l-44 0
0 80 0 80 49 0 c31 0 53 -5 61 -15z m-1096 -526 c56 -44 21 -139 -53 -139 -74
0 -109 83 -56 135 30 31 73 32 109 4z m1830 -3478 c108 -53 169 -149 169 -266
1 -118 -59 -212 -169 -266 l-49 -24 -940 0 c-935 0 -940 0 -986 21 -63 30
-116 79 -147 138 -22 43 -27 64 -27 131 0 67 5 88 27 131 41 78 112 133 195
153 22 5 438 9 958 8 l920 -2 49 -24z m1556 -187 c0 -8 -5 -14 -10 -14 -6 0
-4 -10 5 -23 8 -13 12 -28 8 -32 -5 -5 0 -3 9 4 10 7 15 17 12 22 -4 7 6 12
19 8 1 0 14 4 28 10 22 8 30 6 47 -12 11 -12 21 -28 23 -34 2 -7 12 2 22 20
l19 32 -21 -19 c-12 -11 -21 -15 -21 -10 0 5 12 18 27 28 14 11 23 14 19 7 -6
-9 -1 -12 16 -9 14 1 33 -3 42 -11 13 -11 19 -11 31 -1 8 7 12 16 9 21 -3 5 6
9 20 9 14 0 26 -5 26 -11 0 -5 4 -8 9 -5 16 10 21 -23 6 -38 -18 -17 -19 -38
-4 -53 6 -6 9 -20 7 -32 -3 -18 -6 -19 -28 -8 -19 9 -26 22 -28 50 -4 42 -8
45 -29 20 -8 -10 -12 -12 -8 -5 3 6 0 12 -7 13 -7 0 -21 2 -30 4 -18 3 -32
-20 -22 -36 3 -5 21 -7 40 -3 26 5 34 3 34 -8 0 -8 -10 -20 -22 -26 -28 -13
-79 -22 -73 -12 3 4 -4 15 -15 25 -11 10 -17 22 -13 28 3 6 1 7 -5 3 -6 -3 -9
-15 -7 -26 2 -12 0 -18 -5 -15 -5 3 -11 1 -15 -5 -7 -11 -45 -13 -70 -4 -10 4
-23 21 -30 38 l-13 30 0 -36 c0 -48 -18 -78 -46 -78 -24 0 -32 26 -10 34 16 6
17 105 1 125 -9 11 -9 13 0 8 6 -4 14 -3 17 2 4 5 2 12 -3 16 -6 3 -8 12 -5
19 7 17 44 9 44 -10z m-215 5 c4 -6 12 -8 19 -6 17 7 8 -65 -11 -80 -12 -9
-11 -14 8 -32 16 -15 20 -24 12 -32 -13 -13 -63 -1 -63 17 0 7 -9 18 -20 24
-18 10 -20 8 -20 -20 0 -23 -4 -30 -20 -30 -18 0 -20 7 -21 58 0 31 -2 66 -4
76 -2 11 -2 23 1 28 8 12 112 10 119 -3z m-85 -1110 c28 -51 64 -49 -974 -47
l-961 3 -3 24 c-2 13 2 28 10 32 7 5 441 9 965 9 952 0 952 0 963 -21z"/>
<path d="M23438 26036 c-131 -36 -208 -141 -208 -280 0 -146 131 -276 279
-276 104 0 207 66 255 162 33 66 36 170 7 234 -57 126 -204 197 -333 160z
m112 -160 c0 -40 -3 -101 -6 -135 -7 -60 -8 -62 -33 -59 -26 3 -26 3 -33 123
-4 66 -6 126 -3 133 2 6 20 12 40 12 l35 0 0 -74z"/>
<path d="M23227 19766 c-70 -19 -125 -63 -161 -126 -27 -47 -31 -65 -31 -125
1 -112 47 -183 155 -241 33 -18 76 -19 965 -19 872 0 933 1 977 18 53 21 122
89 145 145 20 47 20 146 0 193 -22 53 -81 114 -135 141 l-47 23 -910 2 c-724
2 -920 -1 -958 -11z m779 -166 c23 -9 26 -15 21 -44 -3 -19 0 -39 6 -45 7 -7
7 -17 -1 -36 -11 -23 -17 -25 -72 -25 l-60 0 0 73 c0 41 3 77 7 80 10 10 68 8
99 -3z"/>
<path d="M39651 27263 l-50 -100 40 7 39 7 0 -4803 0 -4804 25 0 25 0 0 4803
0 4803 36 -4 35 -4 -46 93 c-26 52 -49 96 -51 98 -1 2 -25 -42 -53 -96z"/>
<path d="M55641 18326 c-8 -10 -10 -283 -9 -1025 l3 -1011 -34 0 c-109 0 -265
-74 -361 -171 -116 -117 -173 -256 -173 -424 -1 -172 57 -312 177 -430 218
-214 533 -232 778 -44 174 133 261 376 214 597 -47 222 -215 400 -431 457 -33
8 -75 15 -95 15 l-35 0 3 1000 2 1000 5480 0 5480 0 0 -229 0 -229 -35 8 c-19
4 -35 5 -34 1 0 -3 22 -49 48 -101 l49 -95 50 102 51 101 -34 -8 c-19 -4 -36
-5 -39 -2 -4 3 -6 114 -6 248 0 211 -2 243 -16 248 -9 3 -2492 6 -5519 6
-4635 0 -5504 -2 -5514 -14z m185 -2109 c132 -48 252 -151 312 -268 84 -167
79 -378 -15 -538 -63 -108 -179 -201 -301 -242 -86 -29 -229 -31 -316 -5 -175
52 -310 188 -371 376 -26 78 -24 223 4 316 49 165 188 309 348 360 101 33 248
33 339 1z"/>
<path d="M25397 18204 l-48 -96 35 6 36 7 0 -1756 0 -1755 25 0 25 0 0 1756 0
1756 35 -6 c19 -4 35 -4 35 -1 0 7 -89 185 -93 185 -1 0 -24 -43 -50 -96z"/>
<path d="M17650 17593 c0 -155 1 -166 16 -145 39 56 -153 52 2707 52 1933 0
2643 -3 2666 -11 18 -7 41 -26 52 -43 l19 -31 0 173 0 172 -2730 0 -2730 0 0
-167z m5336 63 c3 -13 4 -35 2 -47 -3 -24 -5 -24 -130 -27 l-128 -3 0 51 0 50
125 0 c123 0 125 0 131 -24z"/>
<path d="M11540 12900 l0 -4850 2725 0 2725 0 0 4850 0 4850 -2725 0 -2725 0
0 -4850z m5400 0 l0 -4800 -2675 0 -2675 0 0 4800 0 4800 2675 0 2675 0 0
-4800z"/>
<path d="M13461 12981 c-26 -26 -35 -74 -21 -116 13 -41 35 -55 83 -55 49 0
79 35 79 95 0 62 -29 95 -84 95 -24 0 -45 -7 -57 -19z"/>
<path d="M13666 12987 c-15 -11 -17 -22 -12 -53 10 -61 6 -107 -9 -125 -20
-22 -19 -43 5 -64 15 -14 31 -17 76 -13 65 6 89 26 79 68 -9 33 -21 40 -73 40
-36 0 -43 3 -40 17 2 10 17 20 38 24 42 9 63 35 56 72 -4 19 -1 27 9 27 8 0
15 5 15 10 0 15 -123 12 -144 -3z"/>
<path d="M14731 12974 c-38 -48 -18 -147 33 -160 41 -10 91 -1 94 18 3 14 -1
16 -25 9 -32 -9 -51 -5 -75 17 -35 30 -22 42 47 42 62 0 65 1 65 24 0 13 -9
35 -21 50 -16 20 -29 26 -59 26 -30 0 -43 -6 -59 -26z"/>
<path d="M14931 12974 c-31 -39 -29 -107 4 -139 33 -33 125 -34 125 -1 0 7
-15 10 -43 8 -45 -4 -77 14 -77 44 0 11 15 14 66 14 l66 0 -7 33 c-11 48 -32
67 -76 67 -29 0 -42 -6 -58 -26z"/>
<path d="M46480 17503 c0 -155 1 -166 16 -145 39 56 -153 52 2707 52 1933 0
2643 -3 2666 -11 18 -7 41 -26 52 -43 l19 -31 0 173 0 172 -2730 0 -2730 0 0
-167z m5335 37 l0 -45 -127 -3 -128 -3 0 51 0 51 128 -3 127 -3 0 -45z"/>
<path d="M58160 17453 c1 -172 2 -186 16 -161 33 63 -181 58 2711 58 2090 0
2643 -3 2663 -13 13 -7 35 -28 47 -46 l23 -34 0 192 0 191 -2730 0 -2730 0 0
-187z m5220 42 l0 -55 -100 0 -100 0 0 48 c0 27 3 52 7 55 3 4 48 7 100 7 l93
0 0 -55z"/>
<path d="M63940 17453 c1 -172 2 -186 16 -161 33 63 -181 58 2711 58 2090 0
2643 -3 2663 -13 13 -7 35 -28 47 -46 l23 -34 0 192 0 191 -2730 0 -2730 0 0
-187z m5240 42 l0 -55 -110 0 -110 0 0 48 c0 27 3 52 7 55 3 4 53 7 110 7
l103 0 0 -55z"/>
<path d="M39520 17501 l0 -39 -38 5 c-28 4 -43 0 -55 -12 -21 -21 -22 -83 -1
-113 17 -24 62 -30 82 -10 9 9 12 9 12 0 0 -7 5 -12 10 -12 6 0 10 43 10 110
0 67 -4 110 -10 110 -5 0 -10 -18 -10 -39z"/>
<path d="M38961 17448 c-5 -13 -5 -33 0 -45 11 -30 8 -65 -8 -84 -29 -35 19
-74 77 -63 37 8 53 26 48 56 -2 18 -12 25 -46 32 -46 11 -51 29 -9 34 28 3 52
34 44 57 -3 7 0 18 6 24 8 8 -4 11 -46 11 -51 0 -59 -3 -66 -22z"/>
<path d="M40496 17448 c-30 -42 -12 -114 31 -124 36 -9 68 3 81 31 29 63 3
115 -58 115 -29 0 -43 -6 -54 -22z"/>
<path d="M74277 17383 c-4 -3 -7 -26 -7 -50 l0 -43 115 0 115 0 0 50 0 50
-108 0 c-60 0 -112 -3 -115 -7z"/>
<path d="M20160 17220 c0 -70 3 -90 14 -90 7 0 16 14 20 30 5 27 9 30 46 30
47 0 76 33 66 75 -8 31 -41 45 -102 45 l-44 0 0 -90z"/>
<path d="M20339 17239 c-10 -10 -19 -32 -19 -47 0 -44 26 -61 93 -59 53 1 58
3 53 22 -3 11 -6 39 -6 62 l0 41 -51 0 c-37 1 -55 -4 -70 -19z"/>
<path d="M48760 17130 c0 -73 3 -90 15 -90 10 0 15 10 15 30 0 22 5 30 18 30
10 0 28 -13 40 -30 13 -16 31 -30 42 -30 26 0 25 18 -2 40 l-23 19 23 21 c28
27 28 45 -3 75 -19 20 -34 25 -75 25 l-50 0 0 -90z"/>
<path d="M39680 15505 l0 -1705 25 0 25 0 0 1705 0 1705 -25 0 -25 0 0 -1705z"/>
<path d="M49450 17079 c0 -72 3 -89 15 -89 10 0 15 10 15 28 0 25 3 27 42 27
37 0 44 4 56 28 11 23 11 34 2 57 -14 33 -27 39 -87 38 l-43 -1 0 -88z"/>
<path d="M60387 17133 c-9 -8 -9 -156 -1 -177 12 -30 34 -18 34 19 0 31 3 35
25 35 14 0 25 -4 25 -9 0 -15 49 -61 65 -61 8 0 15 9 15 20 0 11 -6 20 -14 20
-24 0 -28 32 -6 55 48 51 6 105 -81 105 -31 0 -59 -3 -62 -7z"/>
<path d="M66166 17113 c-7 -31 -6 -128 1 -155 8 -33 33 -20 33 17 0 31 3 35
25 35 14 0 25 -4 25 -9 0 -15 49 -61 65 -61 8 0 15 9 15 20 0 11 -6 20 -14 20
-24 0 -28 32 -6 55 48 51 3 105 -86 105 -49 0 -53 -2 -58 -27z"/>
<path d="M61145 17082 c-3 -3 -5 -47 -5 -99 0 -86 1 -93 20 -93 15 0 20 7 20
29 0 28 2 29 33 24 48 -7 81 23 80 73 -2 52 -29 73 -93 72 -28 -1 -52 -4 -55
-6z"/>
<path d="M66926 17082 c-4 -3 -6 -47 -6 -99 0 -86 1 -93 20 -93 15 0 20 7 20
29 0 28 2 29 33 24 47 -7 79 21 79 71 0 53 -21 70 -87 72 -29 1 -56 -1 -59 -4z"/>
<path d="M71840 16850 c0 -64 3 -80 15 -80 9 0 15 9 15 25 0 34 22 32 60 -6
23 -23 34 -29 42 -21 8 8 5 17 -13 31 -23 18 -23 20 -6 38 23 26 22 70 -2 83
-11 5 -40 10 -65 10 l-46 0 0 -80z"/>
<path d="M72475 16882 c-3 -3 -5 -41 -5 -84 0 -63 3 -78 15 -78 9 0 15 10 15
26 0 23 3 25 28 19 53 -11 92 54 58 100 -9 13 -27 19 -60 20 -25 1 -48 0 -51
-3z"/>
<path d="M62183 16353 c-35 -2 -63 -8 -63 -13 0 -6 -7 -10 -15 -10 -8 0 -15
-4 -15 -10 0 -5 -6 -8 -12 -6 -7 1 -10 1 -5 -1 15 -9 7 -53 -10 -53 -15 0 -14
-2 3 -15 19 -15 19 -15 0 -26 -19 -12 -19 -12 -1 -25 18 -14 18 -14 0 -28 -18
-13 -18 -13 1 -25 19 -11 19 -11 0 -26 -11 -8 -16 -15 -11 -15 5 0 4 -5 -3
-12 -18 -18 -14 -46 7 -60 16 -10 18 -15 8 -27 -9 -11 -9 -15 1 -18 13 -5 17
-33 4 -33 -4 0 -6 -20 -4 -45 3 -28 0 -45 -7 -45 -6 0 -11 -18 -11 -40 0 -29
4 -40 15 -40 23 0 18 -20 -12 -49 -26 -24 -27 -26 -8 -29 16 -2 20 -10 19 -42
-1 -22 -7 -47 -15 -56 -11 -14 -10 -17 5 -26 14 -8 16 -12 5 -19 -8 -5 -12
-24 -10 -53 1 -28 -2 -46 -8 -46 -6 0 -11 -18 -11 -40 0 -31 -4 -40 -17 -41
-10 0 -2 -5 17 -11 l35 -11 -35 -15 -35 -15 28 -9 c15 -5 27 -14 27 -19 0 -4
-12 -34 -27 -65 -19 -41 -24 -61 -17 -72 7 -10 7 -29 0 -54 -7 -28 -7 -41 0
-46 6 -4 14 -31 17 -60 6 -48 4 -54 -21 -77 l-27 -25 28 0 c29 0 36 -14 13
-27 -7 -4 -17 -18 -20 -30 -6 -19 -4 -22 11 -16 14 5 13 2 -5 -17 -23 -25 -24
-47 -2 -42 9 2 10 -5 6 -24 -5 -18 -3 -30 6 -36 10 -8 10 -11 1 -15 -8 -3 -13
-25 -13 -59 0 -41 -4 -54 -15 -54 -11 0 -15 -11 -15 -40 0 -22 4 -40 9 -40 10
0 2 -48 -10 -56 -5 -3 -9 -8 -9 -12 0 -11 314 -6 455 7 66 6 172 15 235 20 63
6 147 15 185 20 39 6 73 11 78 11 4 0 7 421 7 935 l0 935 -337 -2 c-186 -1
-366 -3 -400 -5z"/>
<path d="M49680 15892 c-28 -4 -80 -49 -80 -69 0 -8 -7 -16 -15 -19 -18 -7
-20 -40 -2 -48 10 -5 10 -7 0 -12 -15 -7 -17 -44 -3 -44 5 0 16 -15 24 -34 16
-39 60 -66 105 -66 32 0 91 43 91 66 0 18 -39 18 -64 -1 -26 -20 -49 -19 -69
3 -26 28 -21 32 33 32 43 0 50 3 50 20 0 17 -7 20 -49 20 -68 0 -75 18 -9 22
41 2 54 7 56 21 3 14 -4 17 -48 17 -48 0 -50 1 -40 20 11 21 64 28 75 10 8
-12 65 -13 65 -1 0 35 -69 71 -120 63z"/>
<path d="M48646 15865 c-55 -51 -31 -135 46 -161 l31 -10 -37 -42 c-31 -34
-35 -43 -22 -48 32 -12 62 8 119 78 49 62 57 79 57 114 0 35 -5 47 -31 68 -43
36 -124 37 -163 1z"/>
<path d="M49001 15864 c-26 -21 -31 -33 -31 -68 0 -48 25 -80 73 -91 34 -9 34
-15 -3 -50 -38 -36 -38 -55 -2 -55 23 0 39 14 86 70 65 79 80 116 65 160 -15
40 -50 60 -108 60 -39 0 -56 -6 -80 -26z"/>
<path d="M49259 15861 c-53 -54 -33 -130 41 -152 l39 -12 -35 -42 c-18 -23
-34 -45 -34 -49 0 -4 14 -6 31 -4 26 2 44 18 93 77 55 66 61 78 61 118 0 64
-35 93 -111 93 -48 0 -60 -4 -85 -29z"/>
<path d="M54862 15756 l4 -36 -688 0 -688 0 -10 -26 c-6 -16 -10 -508 -10
-1335 l0 -1309 -765 0 -765 0 0 -25 0 -25 768 0 c422 0 777 3 790 6 l22 6 0
1329 0 1329 675 0 675 0 -6 -27 c-3 -16 -7 -34 -9 -40 -3 -7 41 10 96 38 56
27 100 52 98 53 -2 2 -46 25 -98 51 l-93 46 4 -35z"/>
<path d="M19728 15658 c-56 -15 -88 -58 -88 -118 0 -42 4 -51 35 -79 20 -17
47 -31 60 -31 39 0 37 -13 -10 -67 -24 -28 -41 -53 -38 -57 3 -3 21 -6 39 -6
28 0 41 11 102 83 95 111 110 154 77 217 -27 52 -106 78 -177 58z"/>
<path d="M20179 15661 c-72 -22 -105 -68 -96 -134 7 -50 41 -86 89 -93 21 -4
38 -10 38 -14 0 -4 -18 -30 -40 -56 -22 -27 -40 -52 -40 -56 0 -19 70 -7 90
15 66 69 133 161 139 189 16 70 -21 127 -94 147 -45 12 -50 12 -86 2z"/>
<path d="M20500 15658 c-71 -20 -108 -84 -89 -154 11 -37 57 -74 95 -74 37 0
35 -12 -11 -65 -24 -29 -41 -55 -38 -59 3 -3 21 -6 39 -6 28 0 41 10 98 79
100 119 114 158 81 221 -26 50 -107 77 -175 58z"/>
<path d="M20956 15660 c-37 -12 -64 -37 -87 -82 -11 -21 -24 -38 -29 -38 -6 0
-10 -9 -10 -20 0 -11 5 -20 10 -20 6 0 10 -7 10 -15 0 -8 -4 -15 -10 -15 -5 0
-10 -9 -10 -20 0 -11 4 -20 10 -20 5 0 19 -20 31 -45 29 -62 75 -89 142 -82
41 3 56 10 79 36 15 17 28 36 28 41 0 22 -35 23 -71 2 -21 -12 -47 -22 -58
-22 -21 0 -64 47 -55 61 3 5 30 9 60 9 47 0 54 3 54 20 0 16 -8 19 -62 22 -35
2 -63 8 -63 13 0 6 28 11 63 13 54 3 62 6 62 22 0 17 -7 20 -47 20 -66 0 -82
11 -54 39 24 24 73 28 91 6 11 -14 80 -22 80 -10 0 25 -36 65 -70 79 -45 18
-52 18 -94 6z"/>
<path d="M55722 14648 c2 -94 7 -133 16 -136 8 -2 12 12 13 50 1 76 11 101 41
112 45 16 58 -5 58 -90 0 -59 3 -74 15 -74 22 0 22 152 -1 174 -18 18 -66 21
-95 6 -18 -10 -19 -7 -19 40 0 38 -4 50 -15 50 -13 0 -15 -19 -13 -132z"/>
<path d="M72185 14731 c2 -42 0 -50 -17 -54 -15 -4 -19 -13 -16 -34 2 -15 9
-28 16 -28 7 0 18 -11 25 -25 7 -14 25 -31 40 -38 22 -11 31 -10 55 2 16 8 32
24 35 36 3 11 12 20 20 20 8 0 18 7 21 16 9 25 -3 56 -20 50 -9 -3 -14 1 -14
14 0 35 -47 69 -116 84 l-32 7 3 -50z"/>
<path d="M54900 14635 c0 -103 3 -125 15 -125 11 0 15 20 17 102 l3 103 39
-103 c21 -56 44 -102 51 -102 7 0 30 46 51 102 l39 103 3 -103 c2 -82 6 -102
17 -102 12 0 15 22 15 125 0 124 0 125 -23 125 -20 0 -28 -12 -56 -87 -19 -49
-37 -92 -41 -96 -4 -5 -24 35 -44 87 -33 85 -40 96 -62 96 l-24 0 0 -125z"/>
<path d="M55232 14680 c-21 -20 -26 -44 -23 -100 4 -51 78 -86 135 -64 31 12
15 24 -29 22 -48 -1 -75 14 -75 43 0 17 8 19 60 19 59 0 60 0 60 28 0 15 -7
38 -16 50 -20 29 -81 30 -112 2z"/>
<path d="M55957 14693 c-17 -16 -4 -23 31 -17 28 4 41 2 51 -10 22 -26 6 -46
-38 -46 -23 0 -46 -7 -55 -16 -19 -18 -21 -65 -4 -82 15 -15 63 -16 89 -2 13
7 19 7 19 0 0 -5 7 -10 15 -10 12 0 15 15 15 73 0 94 -15 117 -74 117 -23 0
-46 -3 -49 -7z"/>
<path d="M55550 14228 c0 -40 -3 -49 -12 -40 -18 18 -82 15 -101 -5 -42 -48
-24 -156 29 -169 15 -4 40 -2 56 4 16 6 28 6 28 1 0 -5 7 -9 15 -9 13 0 15 22
15 135 0 113 -2 135 -15 135 -11 0 -15 -12 -15 -52z"/>
<path d="M25420 14020 l0 -220 25 0 25 0 0 220 0 220 -25 0 -25 0 0 -220z"/>
<path d="M54377 14193 c-17 -16 -4 -24 31 -18 29 4 42 2 51 -9 22 -26 6 -46
-38 -46 -23 0 -46 -7 -55 -16 -19 -18 -21 -65 -4 -82 15 -15 63 -16 89 -2 13
7 19 7 19 0 0 -5 7 -10 15 -10 12 0 15 15 15 73 0 94 -15 117 -74 117 -23 0
-46 -3 -49 -7z"/>
<path d="M54951 14174 c-38 -48 -18 -147 33 -160 41 -10 91 -1 94 18 3 14 -1
16 -25 9 -32 -9 -51 -5 -75 17 -35 30 -22 42 47 42 62 0 65 1 65 24 0 13 -9
35 -21 50 -16 20 -29 26 -59 26 -30 0 -43 -6 -59 -26z"/>
<path d="M55240 14180 c-19 -19 -24 -44 -21 -100 4 -51 78 -86 135 -64 31 12
15 24 -29 22 -48 -1 -75 14 -75 43 0 17 8 19 60 19 59 0 60 0 60 28 0 15 -7
38 -16 50 -20 29 -85 31 -114 2z"/>
<path d="M55730 14065 c0 -113 2 -135 15 -135 11 0 15 12 15 52 0 40 3 49 12
40 15 -15 62 -16 88 -2 40 21 45 123 9 166 -14 17 -80 19 -97 2 -9 -9 -12 -9
-12 0 0 7 -7 12 -15 12 -13 0 -15 -22 -15 -135z"/>
<path d="M55961 14191 c-19 -12 3 -24 29 -16 33 10 62 -4 58 -28 -2 -18 -12
-23 -47 -28 -63 -8 -92 -57 -55 -93 19 -19 75 -21 93 -3 11 10 14 10 18 0 3
-7 9 -13 14 -13 14 0 11 164 -3 178 -14 14 -86 16 -107 3z"/>
<path d="M56320 14105 c0 -78 3 -95 15 -95 12 0 15 14 15 69 0 71 14 101 45
101 31 0 45 -30 45 -101 0 -55 3 -69 15 -69 12 0 15 14 15 69 0 71 14 101 45
101 31 0 45 -30 45 -101 0 -55 3 -69 15 -69 12 0 15 14 15 68 0 89 -14 116
-63 120 -21 2 -45 -2 -53 -9 -11 -9 -18 -9 -26 -1 -16 16 -71 15 -87 0 -11
-10 -14 -10 -18 0 -13 36 -23 1 -23 -83z"/>
<path d="M56660 14180 c-19 -19 -24 -44 -21 -100 4 -51 78 -86 135 -64 31 12
15 24 -29 22 -48 -1 -75 14 -75 43 0 17 8 19 60 19 59 0 60 0 60 28 0 15 -7
38 -16 50 -20 29 -85 31 -114 2z"/>
<path d="M72520 14060 l0 -70 55 0 c45 0 56 4 65 21 8 14 8 24 1 33 -6 6 -8
22 -4 34 9 35 -14 52 -68 52 l-49 0 0 -70z"/>
<path d="M48335 14088 c-30 -16 -45 -39 -45 -69 0 -41 9 -58 42 -75 38 -20 82
-10 108 23 28 36 25 69 -9 104 -31 30 -62 36 -96 17z"/>
<path d="M49057 14093 c-11 -18 -47 -146 -43 -151 14 -13 34 11 45 52 6 25 13
46 15 46 3 0 12 -23 21 -51 22 -64 42 -62 65 6 l17 50 17 -52 c11 -33 23 -53
33 -53 17 0 12 34 -16 109 -19 52 -37 62 -50 29 -5 -13 -14 -36 -21 -53 l-12
-30 -23 53 c-22 48 -37 63 -48 45z"/>
<path d="M49413 14024 c-15 -24 -15 -29 -2 -53 12 -21 22 -26 52 -25 42 1 43
1 22 -20 -13 -12 -21 -13 -40 -4 -32 14 -46 1 -21 -18 25 -18 57 -18 81 0 14
10 20 30 23 78 l4 65 -51 1 c-44 1 -53 -2 -68 -24z"/>
<path d="M59940 13793 c-64 -23 -83 -113 -34 -152 39 -31 98 -28 129 5 42 45
30 110 -25 139 -30 16 -45 17 -70 8z"/>
<path d="M65720 13793 c-64 -23 -83 -113 -34 -152 39 -31 98 -28 129 5 42 45
30 110 -25 139 -30 16 -45 17 -70 8z"/>
<path d="M25000 13345 l-445 -445 448 -448 447 -447 447 447 448 448 -445 445
c-245 245 -447 445 -450 445 -3 0 -205 -200 -450 -445z m865 -35 l410 -410
-415 -415 -415 -415 -412 412 -413 413 412 412 c227 227 415 413 418 413 3 0
190 -185 415 -410z"/>
<path d="M39257 13342 l-447 -447 448 -448 447 -447 448 448 447 447 -448 448
-447 447 -448 -448z m861 -859 l-413 -413 -412 412 -413 413 412 412 413 413
412 -412 413 -413 -412 -412z"/>
<path d="M60707 13768 c-2 -13 -14 -51 -25 -85 -19 -60 -19 -63 -2 -63 13 0
24 16 37 57 l19 57 23 -57 c24 -59 45 -72 57 -35 3 12 13 37 22 57 l15 36 17
-55 c10 -35 22 -56 33 -58 22 -4 21 16 -6 98 -17 51 -26 65 -42 65 -14 0 -24
-13 -36 -45 -9 -25 -20 -44 -25 -43 -4 1 -15 21 -25 45 -19 50 -53 64 -62 26z"/>
<path d="M66487 13768 c-2 -13 -14 -51 -25 -85 -19 -60 -19 -63 -2 -63 13 0
24 16 37 57 l19 57 23 -57 c13 -31 29 -57 36 -57 7 0 21 23 31 50 10 28 21 50
25 50 4 0 14 -21 21 -47 9 -30 20 -49 31 -51 22 -4 21 16 -6 98 -17 51 -26 65
-42 65 -14 0 -24 -13 -36 -45 -9 -25 -20 -44 -25 -43 -4 1 -15 21 -25 45 -19
50 -53 64 -62 26z"/>
<path d="M60960 13722 c-23 -29 -20 -68 6 -89 9 -6 40 -11 70 -10 50 1 55 3
50 22 -3 11 -6 38 -6 61 l0 41 -50 1 c-42 1 -52 -3 -70 -26z"/>
<path d="M61129 13737 c-48 -36 -24 -107 36 -107 36 0 43 -8 24 -27 -8 -8 -20
-8 -41 -1 -35 13 -50 2 -24 -18 21 -15 64 -18 82 -6 22 15 34 52 34 110 l0 59
-47 1 c-27 0 -55 -5 -64 -11z"/>
<path d="M61280 13722 c-23 -29 -20 -68 6 -89 9 -6 40 -11 70 -10 50 1 55 3
50 22 -3 11 -6 38 -6 61 l0 41 -50 1 c-42 1 -52 -3 -70 -26z"/>
<path d="M66740 13722 c-23 -29 -20 -68 6 -89 9 -6 40 -11 70 -10 50 1 55 3
50 22 -3 11 -6 38 -6 61 l0 41 -50 1 c-42 1 -52 -3 -70 -26z"/>
<path d="M66909 13739 c-25 -14 -32 -57 -14 -85 11 -18 25 -24 51 -24 24 0 34
-4 31 -12 -2 -8 -20 -12 -46 -11 -47 2 -52 -16 -9 -31 64 -23 98 16 98 113 l0
58 -47 1 c-27 0 -55 -3 -64 -9z"/>
<path d="M67060 13722 c-23 -29 -20 -68 6 -89 9 -6 40 -11 70 -10 50 1 55 3
50 22 -3 11 -6 38 -6 61 l0 41 -50 1 c-42 1 -52 -3 -70 -26z"/>
<path d="M43727 13252 l-447 -447 443 -443 c243 -243 447 -442 452 -442 6 0
210 200 455 445 l445 445 -445 445 c-245 245 -447 445 -450 445 -3 0 -206
-201 -453 -448z m863 -857 l-415 -415 -415 415 -415 415 415 415 415 415 415
-415 415 -415 -415 -415z"/>
<path d="M55590 13389 c-241 -29 -436 -196 -506 -434 -24 -82 -24 -240 0 -319
33 -110 84 -196 160 -271 178 -175 436 -223 651 -121 211 100 338 284 352 511
16 277 -145 519 -402 606 -88 30 -170 39 -255 28z m252 -79 c227 -85 373 -312
355 -554 -17 -228 -160 -415 -375 -487 -86 -29 -228 -32 -317 -5 -177 52 -316
196 -371 382 -24 84 -23 219 5 310 49 165 188 309 348 360 110 35 251 33 355
-6z"/>
<path d="M41530 13201 l0 -39 -38 5 c-28 4 -43 0 -55 -12 -21 -21 -22 -83 -1
-113 17 -24 62 -30 82 -10 9 9 12 9 12 0 0 -7 5 -12 10 -12 6 0 10 43 10 110
0 67 -4 110 -10 110 -5 0 -10 -18 -10 -39z"/>
<path d="M40750 13119 l0 -102 58 6 c73 8 102 37 102 103 0 65 -33 94 -106 94
l-54 0 0 -101z"/>
<path d="M19414 13160 c-56 -22 -72 -103 -29 -145 35 -36 95 -37 132 -3 76 70
-6 187 -103 148z"/>
<path d="M20184 13086 c-15 -47 -25 -88 -21 -92 14 -15 35 7 47 50 7 25 16 46
20 46 5 0 16 -22 26 -50 19 -54 39 -64 53 -27 5 12 15 38 24 57 l14 35 17 -57
c14 -46 22 -58 38 -58 12 0 18 5 15 13 -2 6 -15 47 -27 90 -28 93 -45 98 -75
20 -11 -29 -23 -53 -26 -53 -4 0 -15 24 -25 52 -29 81 -47 75 -80 -26z"/>
<path d="M20450 13092 c-15 -18 -19 -34 -15 -52 11 -43 23 -50 87 -48 55 1 59
3 54 22 -3 12 -6 39 -6 62 l0 41 -50 1 c-42 1 -52 -3 -70 -26z"/>
<path d="M20616 13101 c-21 -23 -21 -75 0 -92 9 -7 31 -12 50 -12 37 1 44 -11
16 -26 -11 -6 -24 -6 -35 1 -10 5 -25 8 -34 6 -30 -6 14 -38 51 -38 51 0 66
25 66 107 l0 70 -49 1 c-35 1 -53 -4 -65 -17z"/>
<path d="M20779 13099 c-10 -10 -19 -32 -19 -47 0 -44 26 -61 93 -59 53 1 58
3 53 22 -3 11 -6 39 -6 62 l0 41 -51 0 c-37 1 -55 -4 -70 -19z"/>
<path d="M17450 12966 c4 -19 5 -37 2 -40 -3 -4 -106 -6 -229 -6 l-223 0 0
-22 0 -23 207 3 c114 2 217 1 229 -2 19 -5 21 -10 14 -40 l-7 -34 98 46 c54
26 98 49 98 52 1 5 -184 100 -193 100 -2 0 0 -16 4 -34z"/>
<path d="M24347 12959 l6 -39 -622 0 c-614 0 -621 0 -621 -20 0 -20 7 -20 613
-21 336 -1 616 -1 621 0 5 1 6 -16 3 -38 l-5 -40 94 47 c52 26 94 49 94 52 0
3 -42 26 -94 52 l-94 47 5 -40z"/>
<path d="M38607 12955 l6 -35 -4967 0 -4966 0 0 -25 0 -25 4966 0 4967 0 -6
-35 c-3 -19 -4 -35 -2 -35 3 0 48 21 100 47 l95 48 -92 47 c-51 26 -96 47
-100 47 -4 1 -4 -15 -1 -34z"/>
<path d="M27613 12972 c-18 -12 -34 -62 -27 -86 25 -83 134 -69 134 17 0 47
-24 77 -63 77 -18 0 -37 -4 -44 -8z"/>
<path d="M26352 12898 c3 -23 5 -23 168 -23 163 0 165 0 168 23 l3 22 -171 0
-171 0 3 -22z"/>
<path d="M43077 12869 l6 -39 -387 0 -387 0 3 -22 3 -23 384 -3 383 -2 -4 -34
-4 -34 93 46 c51 26 93 49 93 52 0 3 -42 26 -94 52 l-94 47 5 -40z"/>
<path d="M46280 12874 c6 -24 5 -37 -4 -40 -6 -2 -278 -3 -604 -2 l-592 3 0
-27 0 -27 593 0 c325 -1 597 -1 603 -1 8 0 9 -11 4 -34 l-7 -34 81 40 c44 22
89 42 99 45 9 3 17 8 17 12 0 6 -101 59 -166 87 l-32 13 8 -35z"/>
<path d="M54862 12855 l4 -37 -1463 7 -1463 8 0 -25 0 -25 1463 -8 c804 -4
1463 -8 1464 -9 1 -1 -2 -18 -6 -38 l-9 -37 100 50 c55 28 99 52 97 53 -2 2
-46 25 -98 51 l-93 46 4 -36z"/>
<path d="M57967 12844 l6 -36 -857 8 -856 7 0 -27 0 -26 278 0 c152 0 537 -3
856 -7 l578 -6 -5 -33 -6 -34 67 33 c37 19 82 41 101 49 l35 16 -93 46 c-51
25 -97 46 -101 46 -5 0 -6 -16 -3 -36z"/>
<path d="M40926 12754 c-23 -22 -21 -96 2 -117 25 -22 75 -21 95 1 23 26 22
94 -1 115 -23 21 -76 22 -96 1z"/>
<path d="M51940 12585 l0 -25 765 0 765 0 0 -1327 c0 -731 3 -1338 6 -1350 l6
-23 687 0 c378 0 690 -2 693 -6 3 -3 2 -20 -2 -39 l-8 -34 100 50 c55 28 99
52 97 53 -2 2 -46 25 -98 51 l-93 46 4 -35 4 -36 -669 -2 c-368 -2 -671 -1
-673 1 -2 2 -4 611 -4 1353 l0 1348 -790 0 -790 0 0 -25z"/>
<path d="M55724 11867 c-2 -7 -3 -67 -2 -132 2 -84 7 -120 16 -123 8 -2 12 12
13 50 1 76 11 101 41 112 45 16 58 -5 58 -90 0 -59 3 -74 15 -74 22 0 22 152
-1 174 -18 18 -66 21 -95 6 -18 -10 -19 -7 -19 40 0 47 -14 67 -26 37z"/>
<path d="M54900 11735 c0 -103 3 -125 15 -125 11 0 15 20 17 102 l3 103 39
-103 c21 -56 44 -102 51 -102 7 0 30 46 51 102 l39 103 3 -103 c2 -82 6 -102
17 -102 12 0 15 22 15 125 0 124 0 125 -23 125 -20 0 -28 -12 -56 -87 -19 -49
-37 -92 -41 -96 -4 -5 -24 34 -45 87 -33 84 -40 96 -61 96 l-24 0 0 -125z"/>
<path d="M55232 11780 c-21 -20 -26 -44 -23 -100 4 -51 78 -86 135 -64 31 12
15 24 -29 22 -48 -1 -75 14 -75 43 0 17 8 19 60 19 59 0 60 0 60 28 0 15 -7
38 -16 50 -20 29 -81 30 -112 2z"/>
<path d="M55957 11793 c-16 -15 -5 -22 34 -20 30 1 44 -3 53 -16 14 -22 -5
-37 -47 -37 -46 0 -67 -17 -67 -53 0 -18 5 -38 12 -45 15 -15 63 -16 89 -2 13
7 19 7 19 0 0 -5 7 -10 15 -10 12 0 15 15 15 73 0 94 -15 117 -74 117 -23 0
-46 -3 -49 -7z"/>
<path d="M55610 11328 c0 -40 -3 -49 -12 -40 -21 21 -85 15 -102 -10 -25 -35
-29 -81 -12 -121 17 -42 53 -56 98 -39 16 6 28 6 28 1 0 -5 7 -9 15 -9 13 0
15 22 15 135 0 113 -2 135 -15 135 -11 0 -15 -12 -15 -52z"/>
<path d="M54407 11293 c-17 -16 -4 -23 31 -17 28 4 41 2 51 -10 21 -25 6 -46
-34 -46 -54 0 -75 -15 -75 -53 0 -18 5 -38 12 -45 15 -15 63 -16 89 -2 13 7
19 7 19 0 0 -5 7 -10 15 -10 12 0 15 15 15 73 0 94 -15 117 -74 117 -23 0 -46
-3 -49 -7z"/>
<path d="M54590 11165 c0 -113 2 -135 15 -135 11 0 15 12 15 52 0 40 3 49 12
40 22 -22 75 -14 97 14 29 36 29 116 1 144 -22 22 -70 26 -101 10 -13 -7 -19
-7 -19 0 0 5 -4 10 -10 10 -6 0 -10 -52 -10 -135z"/>
<path d="M55301 11276 c-34 -36 -32 -113 4 -143 26 -23 75 -30 109 -17 31 12
15 24 -29 22 -48 -1 -75 14 -75 43 0 17 8 19 60 19 59 0 60 0 60 28 0 15 -7
38 -16 50 -22 31 -83 30 -113 -2z"/>
<path d="M55790 11165 c0 -113 2 -135 15 -135 11 0 15 12 15 52 0 40 3 49 12
40 15 -15 62 -16 88 -2 40 21 45 123 9 166 -14 17 -80 19 -96 3 -8 -8 -13 -8
-17 0 -20 31 -26 0 -26 -124z"/>
<path d="M56021 11291 c-19 -12 3 -24 29 -16 33 10 60 -4 60 -31 0 -21 -4 -24
-40 -24 -65 0 -103 -56 -64 -94 19 -19 75 -21 93 -3 11 10 14 10 18 0 3 -7 9
-13 14 -13 14 0 11 164 -3 178 -14 14 -86 16 -107 3z"/>
<path d="M56380 11205 c0 -78 3 -95 15 -95 12 0 15 14 15 69 0 71 14 101 45
101 31 0 45 -30 45 -101 0 -55 3 -69 15 -69 12 0 15 14 15 69 0 71 14 101 45
101 31 0 45 -30 45 -101 0 -55 3 -69 15 -69 12 0 15 14 15 68 0 89 -14 116
-63 120 -21 2 -45 -2 -53 -9 -11 -9 -18 -9 -26 -1 -16 16 -71 15 -87 0 -11
-10 -14 -10 -18 0 -13 36 -23 1 -23 -83z"/>
<path d="M56722 11280 c-21 -20 -26 -44 -23 -100 4 -51 78 -86 135 -64 31 12
15 24 -29 22 -48 -1 -75 14 -75 43 0 17 8 19 60 19 59 0 60 0 60 28 0 15 -7
38 -16 50 -20 29 -81 30 -112 2z"/>
<path d="M61390 11100 l0 -60 45 0 c51 0 62 17 13 22 -42 4 -50 28 -9 28 41 0
49 18 9 22 -47 5 -46 25 1 30 l40 3 16 -52 c16 -51 31 -66 40 -40 2 6 10 26
16 42 l11 30 15 -43 c22 -63 33 -53 68 57 12 38 -17 20 -31 -20 l-12 -34 -16
38 c-9 20 -20 37 -24 37 -4 0 -14 -17 -22 -37 l-14 -38 -14 38 c-15 37 -15 37
-73 37 l-59 0 0 -60z"/>
<path d="M55504 10461 c-98 -28 -171 -69 -242 -135 -131 -123 -194 -263 -195
-441 -2 -171 52 -304 173 -425 217 -217 538 -239 779 -52 76 58 125 121 171
217 42 88 60 166 60 259 -1 226 -133 439 -331 534 -46 22 -108 45 -137 51 -77
16 -208 12 -278 -8z m290 -47 c140 -36 280 -148 344 -277 156 -313 0 -681
-332 -785 -82 -26 -245 -21 -326 9 -224 84 -363 283 -363 519 0 246 147 452
378 526 85 28 209 31 299 8z"/>
<path d="M59589 10101 c-34 -34 -39 -44 -39 -86 0 -42 5 -52 40 -87 39 -39 41
-40 92 -34 29 4 65 7 79 9 16 1 25 7 22 15 -3 6 -1 12 4 12 16 0 32 89 22 124
-13 43 -28 59 -70 74 -67 23 -107 16 -150 -27z"/>
<path d="M21500 9950 l0 -70 40 0 c30 0 47 7 65 25 51 50 17 115 -60 115 l-45
0 0 -70z"/>
<path d="M18750 10003 c-28 -10 -70 -56 -81 -90 -16 -48 10 -115 55 -143 36
-22 95 -26 127 -10 24 13 24 25 0 56 -15 19 -18 31 -11 55 5 17 6 37 3 45 -3
8 0 14 6 14 6 0 8 6 5 14 -3 8 0 17 6 21 6 3 9 1 8 -5 -2 -7 5 -14 14 -15 17
-3 17 -2 0 20 -28 39 -85 55 -132 38z"/>
<path d="M19996 9753 c18 -30 18 -32 1 -51 -9 -10 -17 -23 -17 -28 0 -5 9 2
20 16 l19 25 26 -25 27 -25 22 28 23 28 17 -25 c20 -32 32 -33 56 -3 l18 22
26 -24 26 -24 25 23 25 24 21 -23 21 -22 24 22 24 22 26 -24 26 -24 23 28 c23
26 25 26 34 8 6 -10 18 -22 28 -25 13 -5 11 0 -7 19 -24 26 -25 26 -6 58 l18
32 -25 -23 -25 -24 -12 22 c-6 12 -14 19 -17 16 -4 -3 2 -15 12 -25 16 -19 16
-21 -3 -46 l-21 -26 -20 20 c-25 25 -26 34 -6 51 8 7 15 18 15 24 -1 6 -10 0
-20 -13 l-20 -23 -21 23 -21 24 17 -28 c15 -27 15 -30 0 -54 l-17 -25 -21 21
c-21 21 -21 21 -3 53 l19 33 -26 -23 -25 -24 -12 22 c-6 12 -14 19 -17 16 -4
-3 2 -15 11 -25 16 -18 16 -21 1 -45 -18 -27 -39 -25 -56 6 -8 15 -7 24 7 39
9 10 15 22 11 25 -3 3 -11 -4 -17 -16 l-12 -22 -26 24 -26 23 18 -28 c16 -27
16 -30 1 -54 l-17 -25 -24 23 c-24 22 -23 30 4 62 8 9 11 17 6 17 -5 0 -15
-10 -23 -22 l-14 -22 -17 22 c-23 28 -46 28 -61 1 l-11 -21 -25 24 -25 23 18
-32z"/>
<path d="M18876 9299 c-87 -13 -159 -50 -227 -118 -205 -206 -147 -543 116
-672 l70 -34 1505 -3 c827 -1 1511 1 1520 4 8 4 22 8 30 9 32 4 89 27 100 40
7 8 16 13 20 10 5 -3 15 4 23 15 7 11 16 17 19 15 14 -15 124 143 130 187 2
13 7 26 12 29 27 20 11 249 -17 232 -5 -3 -7 -1 -4 4 9 14 -13 74 -24 67 -5
-3 -6 1 -4 8 7 17 -48 81 -60 70 -4 -4 -5 -2 -1 5 10 18 -99 100 -126 95 -5
-1 -8 3 -8 10 0 6 -3 8 -7 5 -3 -4 -11 -2 -18 3 -6 5 -43 14 -81 20 -86 12
-2882 11 -2968 -1z m189 -48 c30 -11 55 -18 55 -15 0 4 7 -2 83 -67 62 -54
115 -160 124 -247 11 -114 -34 -229 -125 -318 -33 -32 -98 -73 -127 -80 -102
-25 -128 -27 -191 -17 -131 23 -238 104 -292 221 -50 110 -40 261 24 363 46
74 129 139 208 164 64 20 178 18 241 -4z m858 -255 c49 -8 71 -38 46 -63 -8
-8 -16 -6 -30 8 -22 22 -59 25 -59 5 0 -15 77 -39 93 -29 6 3 7 1 3 -5 -16
-26 13 -18 33 8 46 63 140 22 126 -54 -7 -37 -36 -63 -64 -57 -8 1 -21 -5 -29
-16 -8 -10 -12 -12 -10 -4 2 8 -7 26 -20 40 -19 21 -25 23 -32 11 -6 -8 -10
-19 -10 -23 0 -5 -4 -6 -9 -2 -5 3 -12 2 -14 -3 -3 -4 -22 -7 -43 -6 -29 2
-44 9 -61 30 -12 16 -21 30 -19 32 2 2 21 5 42 7 24 2 32 0 24 -5 -16 -10 -12
-17 10 -20 29 -4 40 0 40 15 0 13 -18 19 -57 18 -7 -1 -24 10 -38 23 -26 24
-26 24 -8 54 9 17 23 30 31 30 7 0 10 4 7 10 -3 5 0 8 7 5 7 -2 26 -7 41 -9z
m532 -76 c1 -41 3 -82 5 -90 4 -12 -7 -16 -54 -18 -41 -1 -63 -7 -71 -19 -9
-13 -14 -13 -20 -3 -5 8 -4 11 2 7 6 -4 13 -1 16 7 3 8 -1 17 -9 20 -8 3 -14
12 -14 21 0 8 -5 15 -11 15 -5 0 -7 5 -4 10 3 6 1 10 -5 10 -6 0 -10 -6 -9
-12 5 -44 -2 -63 -23 -63 -21 0 -23 5 -23 50 0 38 -4 50 -15 50 -11 0 -16 -14
-20 -50 -4 -43 -8 -50 -25 -47 -11 2 -21 5 -23 7 -8 7 -6 132 2 127 5 -3 6 3
2 13 -5 15 -4 16 8 6 8 -7 21 -9 27 -5 8 4 9 3 5 -4 -4 -7 -3 -12 3 -12 5 0
15 8 20 18 6 9 11 11 11 5 0 -7 11 -13 25 -13 14 0 24 -3 24 -7 -4 -25 3 -53
12 -53 6 0 8 7 5 16 -3 8 -2 12 4 9 5 -3 15 3 22 15 8 12 23 20 41 20 19 0 30
7 36 23 6 14 17 22 32 22 23 0 24 -3 24 -75z m242 44 c-3 -4 3 -14 14 -23 11
-9 21 -27 24 -40 9 -47 20 -31 18 26 -1 7 3 10 8 7 5 -3 18 1 30 9 22 16 55
12 80 -9 9 -8 18 -12 20 -10 2 3 4 -20 5 -49 0 -30 -3 -52 -6 -50 -4 3 -15 -2
-26 -9 -10 -8 -24 -12 -31 -9 -7 3 -13 0 -13 -6 0 -13 -15 -3 -55 37 -12 12
-25 22 -27 22 -3 0 -5 -10 -4 -22 1 -24 -3 -28 -33 -28 -14 0 -17 6 -13 25 6
35 -6 75 -23 75 -8 0 -14 -3 -14 -7 1 -5 1 -27 0 -50 -1 -36 -4 -43 -21 -43
-17 0 -20 7 -20 44 0 40 -11 56 -36 56 -2 0 -4 -24 -4 -53 0 -49 -2 -54 -22
-52 -21 1 -23 7 -26 72 -3 64 -1 71 18 76 11 3 20 0 20 -6 0 -8 3 -8 11 0 8 8
20 8 39 1 21 -7 36 -6 57 6 30 16 40 20 30 10z m488 -12 c-2 -2 3 -19 11 -37
15 -37 8 -71 -20 -94 -9 -7 -13 -18 -10 -23 4 -6 -1 -5 -12 1 -21 11 -75 25
-86 23 -4 -1 -4 6 -1 15 4 9 2 14 -3 10 -15 -8 -9 46 7 71 8 12 17 22 22 22 4
0 6 3 4 8 -3 4 17 7 43 7 27 0 47 -1 45 -3z"/>
<path d="M18860 9048 c0 -7 35 -48 78 -91 76 -77 77 -78 57 -96 -71 -62 -138
-142 -129 -151 8 -8 36 15 95 75 46 48 85 90 87 94 2 5 -34 47 -79 95 -76 80
-109 103 -109 74z"/>
<path d="M55630 8175 c0 -1072 0 -1095 19 -1105 30 -16 16613 -14 16629 2 9 9
12 99 12 341 l0 330 35 -6 c19 -3 35 -3 34 1 0 4 -21 49 -47 100 l-47 92 -48
-95 c-26 -52 -47 -97 -47 -100 0 -2 16 -1 35 2 l35 6 0 -317 0 -316 -8280 0
-8280 0 0 755 c0 664 2 755 15 755 11 0 15 12 15 52 0 40 3 49 12 40 22 -22
75 -14 97 14 29 36 29 116 1 144 -21 21 -74 27 -99 11 -9 -6 -19 -4 -28 4 -10
10 -13 58 -13 199 l0 186 -25 0 -25 0 0 -1095z"/>
<path d="M54960 8918 c0 -40 -3 -49 -12 -40 -7 7 -29 12 -49 12 -50 0 -79 -36
-79 -95 0 -76 59 -118 121 -85 13 7 19 7 19 0 0 -5 7 -10 15 -10 13 0 15 22
15 135 0 113 -2 135 -15 135 -11 0 -15 -12 -15 -52z"/>
<path d="M56750 8918 c0 -40 -3 -49 -12 -40 -7 7 -29 12 -49 12 -50 0 -79 -36
-79 -95 0 -76 59 -118 121 -85 13 7 19 7 19 0 0 -5 7 -10 15 -10 13 0 15 22
15 135 0 113 -2 135 -15 135 -11 0 -15 -12 -15 -52z"/>
<path d="M55061 8881 c-19 -12 3 -24 29 -16 33 10 60 -4 60 -31 0 -21 -4 -24
-40 -24 -65 0 -103 -56 -64 -94 19 -19 75 -21 93 -3 11 10 14 10 18 0 3 -7 9
-13 14 -13 14 0 11 164 -3 178 -14 14 -86 16 -107 3z"/>
<path d="M55913 8883 c-29 -11 -11 -24 25 -18 29 4 42 2 51 -9 21 -25 6 -46
-31 -46 -50 0 -80 -25 -76 -63 4 -40 43 -57 88 -40 18 7 32 7 36 2 15 -25 24
-1 24 67 0 98 -9 114 -63 113 -23 0 -48 -3 -54 -6z"/>
<path d="M56441 8871 c-41 -41 -34 -135 12 -160 28 -15 99 -11 105 6 2 9 -8
12 -37 11 -43 -1 -66 11 -74 42 -5 18 0 20 59 20 l64 0 0 30 c0 17 -9 39 -20
50 -26 26 -83 27 -109 1z"/>
</g>
</svg>
